<svg class="main-svg" xmlns="http://www.w3.org/2000/svg" xmlns:xlink="http://www.w3.org/1999/xlink" width="700" height="500" style="" viewBox="0 0 700 500"><rect x="0" y="0" width="700" height="500" style="fill: rgb(255, 255, 255); fill-opacity: 1;"/><defs id="defs-c539e4"><g class="clips"/><g class="gradients"/><g class="patterns"/></defs><g class="bglayer"/><g class="layer-below"><g class="imagelayer"/><g class="shapelayer"/></g><g class="cartesianlayer"/><g class="polarlayer"/><g class="smithlayer"/><g class="ternarylayer"/><g class="geolayer"/><g class="funnelarealayer"/><g class="pielayer"><g class="trace" stroke-linejoin="round" style="opacity: 1;"><g class="slice"><path class="surface" d="M368.88030091982375,258.81355533982526a34.71428571428571,34.71428571428571 0 0 0 -29.31024084242709,-53.3151301685566l0,-80.99999999999999a115.71428571428571,115.71428571428571 0 0 1 97.7008028080903,177.71710056185535Z" style="pointer-events: none; fill: rgb(64, 181, 149); fill-opacity: 1; stroke-width: 2; stroke: rgb(0, 0, 0); stroke-opacity: 1;"/><g class="slicetext"><text data-notex="1" class="slicetext" transform="translate(556.2681366253295,188.45408422216423)" text-anchor="middle" x="0" y="0" style="font-family: 'Open Sans', verdana, arial, sans-serif; font-size: 16px; fill: rgb(42, 63, 95); fill-opacity: 1; white-space: pre;">Research and Development</text></g></g><g class="slice"><path class="surface" d="M331.09924246887925,203.60497310397352a34.71428571428571,34.71428571428571 0 0 0 -33.01524763710319,23.986981480983964l-77.03557781990743,-25.030376544370743a115.71428571428571,115.71428571428571 0 0 1 110.05082545701062,-79.95660493661322Z" style="pointer-events: none; fill: rgb(0, 180, 223); fill-opacity: 1; stroke-width: 2; stroke: rgb(0, 0, 0); stroke-opacity: 1;"/><g class="slicetext"><text data-notex="1" class="slicetext" transform="translate(177.7090918464645,144.57297733586603)" text-anchor="middle" x="0" y="0" style="font-family: 'Open Sans', verdana, arial, sans-serif; font-size: 16px; fill: rgb(42, 63, 95); fill-opacity: 1; white-space: pre;">Senior Management</text></g></g><g class="slice"><path class="surface" d="M295.8015189836808,233.35683051537282a34.71428571428571,34.71428571428571 0 0 0 6.267430780743646,32.85502273457769l-62.41157266483892,51.63134316964386a115.71428571428571,115.71428571428571 0 0 1 -20.891435935812154,-109.5167424485923Z" style="pointer-events: none; fill: rgb(128, 217, 239); fill-opacity: 1; stroke-width: 2; stroke: rgb(0, 0, 0); stroke-opacity: 1;"/><g class="slicetext"><text data-notex="1" class="slicetext" transform="translate(113.6364740364643,272.3591693534603)" text-anchor="middle" x="0" y="0" style="font-family: 'Open Sans', verdana, arial, sans-serif; font-size: 16px; fill: rgb(42, 63, 95); fill-opacity: 1; white-space: pre;">Strategic/Business Lead</text></g></g><g class="slice"><path class="surface" d="M305.2887458138711,270.36278930482933a34.71428571428571,34.71428571428571 0 0 0 26.747816856359552,12.58656721300977l2.605158692476151e-14,80.99999999999999a115.71428571428571,115.71428571428571 0 0 1 -89.1593895211985,-41.9552240433659Z" style="pointer-events: none; fill: rgb(204, 120, 167); fill-opacity: 1; stroke-width: 2; stroke: rgb(0, 0, 0); stroke-opacity: 1;"/><g class="slicetext"><text data-notex="1" class="slicetext" transform="translate(160.83031607484367,367.16892882464623)" text-anchor="middle" x="0" y="0" style="font-family: 'Open Sans', verdana, arial, sans-serif; font-size: 16px; fill: rgb(42, 63, 95); fill-opacity: 1; white-space: pre;">In-house Technical Specialist</text></g></g><g class="slice"><path class="surface" d="M336.28788403888365,283.21682698713624a34.71428571428571,34.71428571428571 0 0 0 20.404545186724416,-6.629838623841115l47.61060543569033,65.53037654437072a115.71428571428571,115.71428571428571 0 0 1 -68.01515062241472,22.099462079470385Z" style="pointer-events: none; fill: rgb(229, 187, 211); fill-opacity: 1; stroke-width: 2; stroke: rgb(0, 0, 0); stroke-opacity: 1;"/><g class="slicetext"><text data-notex="1" class="slicetext" transform="translate(497.7643148165562,373.622324577439)" text-anchor="middle" x="0" y="0" style="font-family: 'Open Sans', verdana, arial, sans-serif; font-size: 16px; fill: rgb(42, 63, 95); fill-opacity: 1; white-space: pre;">Consultant/External Specialist</text></g></g><g class="slice"><path class="surface" d="M358.8651391567404,275.30205129195417a34.71428571428571,34.71428571428571 0 0 0 6.343271669635113,-5.956728589168663l62.41157266483893,51.63134316964384a115.71428571428571,115.71428571428571 0 0 1 -21.144238898783712,19.855761963895546Z" style="pointer-events: none; fill: rgb(232, 232, 232); fill-opacity: 1; stroke-width: 2; stroke: rgb(0, 0, 0); stroke-opacity: 1;"/><g class="slicetext"><text data-notex="1" class="slicetext" transform="translate(445.2505983703357,343.53445030595765)" text-anchor="middle" x="0" y="0" style="font-family: 'Open Sans', verdana, arial, sans-serif; font-size: 16px; fill: rgb(42, 63, 95); fill-opacity: 1; white-space: pre;">Other</text></g><path class="textline" stroke-width="2" d="M417.6724733703357,331.56968823170143V337.28445030595765h4.875" fill="none" style="stroke: rgb(42, 63, 95); stroke-opacity: 1;"/></g><g class="slice"><path class="surface" d="M365.9285580381003,268.52847603239667a34.71428571428571,34.71428571428571 0 0 0 2.562423986067543,-3.5268740470050353l68.3905619656632,43.40197039329876a115.71428571428571,115.71428571428571 0 0 1 -8.54141328689181,11.756246823350118Z" style="pointer-events: none; fill: rgb(242, 221, 233); fill-opacity: 1; stroke-width: 2; stroke: rgb(0, 0, 0); stroke-opacity: 1;"/><g class="slicetext"><text data-notex="1" class="slicetext" transform="translate(560.5611898165561,324.03445030595765)" text-anchor="middle" x="0" y="0" style="font-family: 'Open Sans', verdana, arial, sans-serif; font-size: 16px; fill: rgb(42, 63, 95); fill-opacity: 1; white-space: pre;">Digital Twin Support Specialist</text></g></g></g></g><g class="iciclelayer"/><g class="treemaplayer"/><g class="sunburstlayer"/><g class="glimages"/><defs id="topdefs-c539e4"><g class="clips"/></defs><g class="layer-above"><g class="imagelayer"/><g class="shapelayer"/></g><g class="infolayer"><g class="g-gtitle"/></g></svg>