<?xml version="1.0" encoding="UTF-8"?>
<svg id="Hex_codes" xmlns="http://www.w3.org/2000/svg" xmlns:xlink="http://www.w3.org/1999/xlink" viewBox="0 0 822 366.27">
  <defs>
    <style>
      .cls-1 {
        fill: none;
      }

      .cls-2 {
        stroke-width: 3px;
      }

      .cls-2, .cls-3, .cls-4, .cls-5, .cls-6, .cls-7, .cls-8, .cls-9, .cls-10, .cls-11 {
        stroke: #fff;
        stroke-miterlimit: 6;
      }

      .cls-3 {
        fill: #0073b4;
      }

      .cls-3, .cls-4, .cls-5, .cls-6, .cls-7, .cls-8, .cls-9, .cls-10, .cls-11 {
        stroke-width: 4.5px;
      }

      .cls-12, .cls-13, .cls-14 {
        font-size: 12px;
      }

      .cls-12, .cls-13, .cls-14, .cls-15 {
        isolation: isolate;
      }

      .cls-12, .cls-14, .cls-15 {
        fill: #2a3f5f;
      }

      .cls-12, .cls-16, .cls-15 {
        font-family: Geomanist-Book, Geomanist;
      }

      .cls-17 {
        letter-spacing: 1.6em;
      }

      .cls-18 {
        letter-spacing: 1.6em;
      }

      .cls-19 {
        letter-spacing: 1.26em;
      }

      .cls-20 {
        letter-spacing: 1.28em;
      }

      .cls-21 {
        letter-spacing: 1.35em;
      }

      .cls-22 {
        letter-spacing: 1em;
      }

      .cls-23 {
        letter-spacing: .85em;
      }

      .cls-24 {
        letter-spacing: .95em;
      }

      .cls-25 {
        letter-spacing: 1.85em;
      }

      .cls-4 {
        fill: #80b9da;
      }

      .cls-26 {
        letter-spacing: .8em;
      }

      .cls-13 {
        fill: #bbbbba;
        font-family: Verdana-Bold, Verdana;
        font-weight: 700;
      }

      .cls-27 {
        letter-spacing: 0em;
      }

      .cls-28 {
        fill: #fff;
      }

      .cls-29 {
        letter-spacing: 0em;
      }

      .cls-5 {
        fill: #aed3cc;
      }

      .cls-6 {
        fill: #9f4a96;
      }

      .cls-30 {
        letter-spacing: -.02em;
      }

      .cls-31 {
        letter-spacing: -.02em;
      }

      .cls-32 {
        letter-spacing: -.02em;
      }

      .cls-33 {
        letter-spacing: -.02em;
      }

      .cls-7 {
        fill: #d45f14;
      }

      .cls-34 {
        letter-spacing: -.02em;
      }

      .cls-35 {
        letter-spacing: -.01em;
      }

      .cls-8 {
        fill: #e9af89;
      }

      .cls-36 {
        letter-spacing: -.01em;
      }

      .cls-37 {
        letter-spacing: 0em;
      }

      .cls-9 {
        fill: #cfa4ca;
      }

      .cls-14 {
        font-family: Verdana, Verdana;
      }

      .cls-16 {
        font-size: 20.05px;
      }

      .cls-38 {
        letter-spacing: .11em;
      }

      .cls-39 {
        letter-spacing: .09em;
      }

      .cls-10 {
        fill: #bbb;
      }

      .cls-11 {
        fill: #5da899;
      }

      .cls-40 {
        clip-path: url(#clippath);
      }

      .cls-15 {
        font-size: 14px;
      }

      .cls-41 {
        letter-spacing: .03em;
      }

      .cls-42 {
        letter-spacing: .03em;
      }

      .cls-43 {
        letter-spacing: .03em;
      }
    </style>
    <clipPath id="clippath">
      <rect class="cls-1" x="164.5" y="248.53" width="532.2" height="51.93"/>
    </clipPath>
  </defs>
  <path class="cls-2" d="M309.92,73.4v154.39"/>
  <rect class="cls-1" x="165.04" y="73.4" width="531.23" height="154.39"/>
  <g>
    <path class="cls-8" d="M309.92,82.67v37.05h-9.66v-37.05h9.66Z"/>
    <g>
      <path class="cls-7" d="M300.26,82.67v37.05h-28.98v-37.05h28.98Z"/>
      <path class="cls-5" d="M309.92,82.67v37.05h260.79v-37.05h-260.79Z"/>
      <path class="cls-11" d="M570.7,82.67v37.05h125.57v-37.05h-125.57Z"/>
    </g>
  </g>
  <g>
    <path class="cls-8" d="M309.92,140.44v37.05h-48.29v-37.05h48.29Z"/>
    <path class="cls-7" d="M261.63,140.44v37.05h-19.32v-37.05h19.32Z"/>
    <path class="cls-5" d="M309.92,140.44v37.05h164.2v-37.05h-164.2Z"/>
    <path class="cls-11" d="M474.12,140.44v37.05h115.9v-37.05h-115.9Z"/>
  </g>
  <g>
    <path class="cls-8" d="M309.92,198.2v37.05h-38.63v-37.05h38.63Z"/>
    <path class="cls-7" d="M271.28,198.2v37.05h-38.63v-37.05h38.63Z"/>
    <path class="cls-5" d="M309.92,198.2v37.05h202.84v-37.05h-202.84Z"/>
    <path class="cls-11" d="M512.75,198.2v37.05h77.27v-37.05h-77.27Z"/>
  </g>
  <g>
    <text class="cls-14" transform="translate(203.44 339.74)"><tspan x="0" y="0" xml:space="preserve">  20</tspan></text>
    <text class="cls-14" transform="translate(306.14 339.74)"><tspan x="0" y="0">0</tspan></text>
    <text class="cls-14" transform="translate(400.05 339.74)"><tspan x="0" y="0">20</tspan></text>
    <text class="cls-14" transform="translate(496.64 339.74)"><tspan x="0" y="0">40</tspan></text>
    <text class="cls-14" transform="translate(593.23 339.74)"><tspan x="0" y="0">60</tspan></text>
    <text class="cls-14" transform="translate(689.82 339.74)"><tspan x="0" y="0">80</tspan></text>
  </g>
  <text class="cls-15" transform="translate(13.23 217.31)"><tspan x="0" y="0">Our assurance is mo</tspan><tspan class="cls-30" x="125.23" y="0">r</tspan><tspan class="cls-27" x="129.67" y="0">e</tspan><tspan x="0" y="16.8">than checklist complianc</tspan><tspan class="cls-33" x="152.43" y="16.8">e</tspan><tspan x="160.02" y="16.8">.</tspan></text>
  <text class="cls-15" transform="translate(13.23 158.96)"><tspan class="cls-35" x="0" y="0">W</tspan><tspan class="cls-27" x="13.23" y="0">e can link activities</tspan><tspan class="cls-33" x="0" y="16.8">t</tspan><tspan class="cls-29" x="4.12" y="16.8">o guiding principles.</tspan></text>
  <text class="cls-15" transform="translate(13.23 101.28)"><tspan x="0" y="0">The way we communicate </tspan><tspan x="0" y="16.8">builds trust.</tspan></text>
  <text class="cls-15" transform="translate(13.23 268.01)"><tspan x="0" y="0">Satisfaction with </tspan><tspan x="0" y="16.8">identi</tspan><tspan class="cls-41" x="35.11" y="16.8">f</tspan><tspan x="39.87" y="16.8">ying/documenting </tspan><tspan x="0" y="33.6">the p</tspan><tspan class="cls-37" x="32.19" y="33.6">r</tspan><tspan x="36.76" y="33.6">ocess.</tspan></text>
  <rect class="cls-28" x="176.71" y="50.84" width="385.77" height="24.11" shape-rendering="crispEdges"/>
  <path class="cls-2" d="M309.65,250.35v51.93"/>
  <g class="cls-40">
    <g>
      <path class="cls-9" d="M309.65,255.8v37.39h-87.09v-37.39h87.09Z"/>
      <path class="cls-6" d="M222.56,255.8v37.39h-29.03v-37.39h29.03Z"/>
      <path class="cls-4" d="M309.65,255.8v37.39h164.49v-37.39h-164.49Z"/>
      <path class="cls-3" d="M474.14,255.8v37.39h87.09v-37.39h-87.09Z"/>
    </g>
  </g>
  <text class="cls-13" transform="translate(721.74 106.16)"><tspan x="0" y="0">12 %</tspan></text>
  <text class="cls-13" transform="translate(721.74 268.01)"><tspan x="0" y="0">24 %</tspan></text>
  <text class="cls-13" transform="translate(722.53 210.53)"><tspan x="0" y="0">26 %</tspan></text>
  <text class="cls-13" transform="translate(722.53 158.19)"><tspan x="0" y="0">28 %</tspan></text>
  <rect class="cls-7" x="186.18" y="52.1" width="21.29" height="21.29"/>
  <rect class="cls-8" x="310.81" y="52.1" width="21.29" height="21.29"/>
  <rect class="cls-5" x="435.43" y="52.1" width="21.29" height="21.29"/>
  <rect class="cls-11" x="560.06" y="52.1" width="21.29" height="21.29"/>
  <rect class="cls-6" x="166.06" y="300.88" width="21.29" height="21.29"/>
  <rect class="cls-9" x="309.73" y="300.88" width="21.29" height="21.29"/>
  <rect class="cls-4" x="453.39" y="300.88" width="21.29" height="21.29"/>
  <rect class="cls-3" x="597.05" y="300.88" width="21.29" height="21.29"/>
  <text class="cls-12" transform="translate(207.47 68.86)"><tspan x="0" y="0">St</tspan><tspan class="cls-36" x="9.94" y="0">r</tspan><tspan x="13.86" y="0">ongly Disag</tspan><tspan class="cls-31" x="76.43" y="0">r</tspan><tspan x="80.23" y="0">ee </tspan><tspan class="cls-38" x="96.73" y="0">	</tspan><tspan x="101.05" y="0"> </tspan><tspan class="cls-17" x="104.06" y="0">	</tspan><tspan x="126.32" y="0">Disag</tspan><tspan class="cls-31" x="155.5" y="0">r</tspan><tspan x="159.3" y="0">ee</tspan><tspan class="cls-39" x="172.79" y="0">	</tspan><tspan x="176.84" y="0" xml:space="preserve">  </tspan><tspan class="cls-21" x="182.87" y="0">	</tspan><tspan class="cls-25" x="202.11" y="0" xml:space="preserve">		</tspan><tspan x="252.63" y="0">Ag</tspan><tspan class="cls-31" x="267.72" y="0">r</tspan><tspan x="271.52" y="0">ee</tspan><tspan class="cls-19" x="285.01" y="0">	</tspan><tspan x="303.16" y="0" xml:space="preserve">    </tspan><tspan class="cls-23" x="315.21" y="0">	</tspan><tspan class="cls-25" x="328.42" y="0" xml:space="preserve">		</tspan><tspan x="378.95" y="0">St</tspan><tspan class="cls-36" x="388.88" y="0">r</tspan><tspan x="392.81" y="0">ongly Ag</tspan><tspan class="cls-31" x="441.28" y="0">r</tspan><tspan x="445.08" y="0">ee </tspan><tspan class="cls-20" x="461.58" y="0">	</tspan><tspan class="cls-25" x="480" y="0" xml:space="preserve">		</tspan><tspan x="530.53" y="0">Neutral</tspan></text>
  <text class="cls-12" transform="translate(187.35 315.98)"><tspan class="cls-34" x="0" y="0">V</tspan><tspan x="7.73" y="0">e</tspan><tspan class="cls-43" x="14.47" y="0">r</tspan><tspan x="18.88" y="0">y Unsatisfied</tspan><tspan class="cls-24" x="86.6" y="0">	</tspan><tspan x="101.05" y="0"> </tspan><tspan class="cls-18" x="104.07" y="0">	</tspan><tspan x="126.32" y="0" xml:space="preserve">      Somewhat Unsatisfied</tspan><tspan class="cls-22" x="262.84" y="0">	</tspan><tspan x="277.9" y="0" xml:space="preserve">   Somewhat Satisfied</tspan><tspan class="cls-26" x="391.62" y="0">	</tspan><tspan x="404.21" y="0" xml:space="preserve">    </tspan><tspan class="cls-23" x="416.26" y="0">	</tspan><tspan x="429.47" y="0"> </tspan><tspan class="cls-34" x="432.48" y="0">V</tspan><tspan x="440.21" y="0">e</tspan><tspan class="cls-42" x="446.96" y="0">r</tspan><tspan x="451.36" y="0">y Satisfied</tspan></text>
  <rect class="cls-10" x="712.96" y="52.7" width="21.29" height="21.29"/>
  <text class="cls-16" transform="translate(18.06 24.96)"><tspan x="0" y="0">Attitudes and satisfaction towards cur</tspan><tspan class="cls-32" x="333.92" y="0">r</tspan><tspan x="340.28" y="0">ent assurance pratices</tspan></text>
</svg>