<?xml version="1.0" encoding="UTF-8"?>
<svg id="Hex_codes" xmlns="http://www.w3.org/2000/svg" xmlns:xlink="http://www.w3.org/1999/xlink" viewBox="0 0 621.03 296.89">
  <defs>
    <style>
      .cls-1 {
        fill: none;
      }

      .cls-2 {
        stroke-width: 3px;
      }

      .cls-2, .cls-3, .cls-4, .cls-5, .cls-6 {
        stroke: #fff;
        stroke-miterlimit: 6;
      }

      .cls-3 {
        fill: #0073b4;
      }

      .cls-3, .cls-4, .cls-5, .cls-6 {
        stroke-width: 6px;
      }

      .cls-7 {
        fill: #cc78a7;
      }

      .cls-7, .cls-8, .cls-9, .cls-10 {
        font-family: MyriadPro-Regular, 'Myriad Pro';
      }

      .cls-7, .cls-9, .cls-10 {
        font-size: 20px;
      }

      .cls-8 {
        font-size: 12px;
      }

      .cls-11 {
        letter-spacing: 0em;
      }

      .cls-12 {
        letter-spacing: 0em;
      }

      .cls-13 {
        letter-spacing: 0em;
      }

      .cls-14 {
        letter-spacing: 0em;
      }

      .cls-9 {
        fill: #0073b4;
      }

      .cls-4 {
        fill: #00b4df;
      }

      .cls-10 {
        fill: #9f4a96;
      }

      .cls-5 {
        fill: #9f4a96;
      }

      .cls-15 {
        letter-spacing: -.03em;
      }

      .cls-16 {
        letter-spacing: 0em;
      }

      .cls-17 {
        letter-spacing: 0em;
      }

      .cls-18 {
        letter-spacing: 0em;
      }

      .cls-19 {
        letter-spacing: 0em;
      }

      .cls-20 {
        letter-spacing: 0em;
      }

      .cls-21 {
        letter-spacing: 0em;
      }

      .cls-22 {
        letter-spacing: -.01em;
      }

      .cls-23 {
        letter-spacing: -.01em;
      }

      .cls-24 {
        letter-spacing: 0em;
      }

      .cls-25 {
        letter-spacing: 0em;
      }

      .cls-26 {
        letter-spacing: 0em;
      }

      .cls-6 {
        fill: #cc78a7;
      }

      .cls-27 {
        font-family: Geomanist-Book, Geomanist;
        font-size: 20.05px;
      }

      .cls-28 {
        letter-spacing: .02em;
      }

      .cls-29 {
        letter-spacing: .02em;
      }

      .cls-30 {
        clip-path: url(#clippath);
      }

      .cls-31 {
        letter-spacing: .01em;
      }

      .cls-32 {
        letter-spacing: 0em;
      }

      .cls-33 {
        letter-spacing: 0em;
      }

      .cls-34 {
        letter-spacing: .01em;
      }

      .cls-35 {
        letter-spacing: 0em;
      }
    </style>
    <clipPath id="clippath">
      <rect class="cls-1" x="164.27" y="85.83" width="333.02" height="206.27"/>
    </clipPath>
  </defs>
  <text class="cls-9" transform="translate(446.21 165.46)"><tspan x="0" y="0">68 % </tspan><tspan class="cls-35" x="44.84" y="0">I</tspan><tspan class="cls-21" x="49.82" y="0">n</tspan><tspan class="cls-18" x="60.84" y="0">t</tspan><tspan x="67.34" y="0">e</tspan><tspan class="cls-32" x="77.36" y="0">r</tspan><tspan x="83.98" y="0">nal</tspan></text>
  <text class="cls-10" transform="translate(237.52 224.63)"><tspan x="0" y="0">6 % E</tspan><tspan class="cls-31" x="44.42" y="0">x</tspan><tspan class="cls-18" x="53.94" y="0">t</tspan><tspan x="60.44" y="0">e</tspan><tspan class="cls-32" x="70.46" y="0">r</tspan><tspan x="77.08" y="0">nal</tspan></text>
  <text class="cls-27" transform="translate(21.87 32.53)"><tspan x="0" y="0">Who p</tspan><tspan class="cls-25" x="60.04" y="0">r</tspan><tspan class="cls-14" x="66.6" y="0">ovides assurance </tspan><tspan class="cls-25" x="224.23" y="0">f</tspan><tspan x="230.24" y="0">or / within your organisation?</tspan></text>
  <path class="cls-2" d="M23.62,85.83v206.27"/>
  <g class="cls-30">
    <g>
      <g shape-rendering="crispEdges">
        <path class="cls-6" d="M164.27,286.95v-41.25h149.86v41.25h-149.86Z"/>
      </g>
      <g shape-rendering="crispEdges">
        <path class="cls-5" d="M164.27,235.38v-41.25h49.95v41.25h-49.95Z"/>
      </g>
      <g shape-rendering="crispEdges">
        <path class="cls-4" d="M164.27,183.81v-41.25h249.76v41.25h-249.76Z"/>
      </g>
      <g shape-rendering="crispEdges">
        <path class="cls-3" d="M164.27,132.25v-41.25h316.37v41.25H164.27Z"/>
      </g>
    </g>
  </g>
  <text class="cls-7" transform="translate(330.78 277.52)"><tspan x="0" y="0">18 % </tspan><tspan class="cls-18" x="44.84" y="0">A</tspan><tspan x="56.96" y="0">ssu</tspan><tspan class="cls-23" x="83.82" y="0">r</tspan><tspan class="cls-13" x="90.16" y="0">er</tspan></text>
  <text class="cls-8" transform="translate(35.39 113.68)"><tspan class="cls-34" x="0" y="0">I</tspan><tspan class="cls-11" x="2.99" y="0">n-hous</tspan><tspan class="cls-22" x="37.94" y="0">e</tspan><tspan x="43.81" y="0">, non-speciali</tspan><tspan class="cls-16" x="109.63" y="0">z</tspan><tspan x="114.68" y="0">ed</tspan></text>
  <text class="cls-8" transform="translate(36.25 163.98)"><tspan class="cls-34" x="0" y="0">I</tspan><tspan class="cls-11" x="2.99" y="0">n-hous</tspan><tspan class="cls-22" x="37.94" y="0">e</tspan><tspan x="43.81" y="0">, assu</tspan><tspan class="cls-20" x="70.74" y="0">r</tspan><tspan class="cls-11" x="74.6" y="0">an</tspan><tspan class="cls-17" x="87.05" y="0">c</tspan><tspan class="cls-12" x="92.35" y="0">e </tspan><tspan class="cls-19" x="100.91" y="0">t</tspan><tspan x="104.81" y="0">eam</tspan></text>
  <text class="cls-8" transform="translate(11.8 268.73)"><tspan class="cls-15" x="0" y="0">W</tspan><tspan x="9.76" y="0">e p</tspan><tspan class="cls-23" x="25.14" y="0">r</tspan><tspan class="cls-26" x="28.94" y="0">o</tspan><tspan class="cls-12" x="35.45" y="0">vide assu</tspan><tspan class="cls-20" x="81.25" y="0">r</tspan><tspan x="85.12" y="0">an</tspan><tspan class="cls-19" x="97.56" y="0">c</tspan><tspan x="102.86" y="0">e se</tspan><tspan class="cls-28" x="122.18" y="0">r</tspan><tspan class="cls-12" x="126.41" y="0">vi</tspan><tspan class="cls-17" x="134.99" y="0">c</tspan><tspan x="140.29" y="0">es</tspan></text>
  <text class="cls-8" transform="translate(109.74 215.09)"><tspan x="0" y="0">thi</tspan><tspan class="cls-24" x="13.44" y="0">r</tspan><tspan x="17.24" y="0">d pa</tspan><tspan class="cls-29" x="39.17" y="0">r</tspan><tspan class="cls-33" x="43.38" y="0">t</tspan><tspan x="47.46" y="0">y</tspan></text>
</svg>