<?xml version="1.0" encoding="utf-8" standalone="no"?>
<!DOCTYPE svg PUBLIC "-//W3C//DTD SVG 1.1//EN"
  "http://www.w3.org/Graphics/SVG/1.1/DTD/svg11.dtd">
<svg xmlns:xlink="http://www.w3.org/1999/xlink" width="720pt" height="432pt" viewBox="0 0 720 432" xmlns="http://www.w3.org/2000/svg" version="1.1">
 <metadata>
  <rdf:RDF xmlns:dc="http://purl.org/dc/elements/1.1/" xmlns:cc="http://creativecommons.org/ns#" xmlns:rdf="http://www.w3.org/1999/02/22-rdf-syntax-ns#">
   <cc:Work>
    <dc:type rdf:resource="http://purl.org/dc/dcmitype/StillImage"/>
    <dc:date>2024-10-04T15:19:18.051479</dc:date>
    <dc:format>image/svg+xml</dc:format>
    <dc:creator>
     <cc:Agent>
      <dc:title>Matplotlib v3.8.4, https://matplotlib.org/</dc:title>
     </cc:Agent>
    </dc:creator>
   </cc:Work>
  </rdf:RDF>
 </metadata>
 <defs>
  <style type="text/css">*{stroke-linejoin: round; stroke-linecap: butt}</style>
 </defs>
 <g id="figure_1">
  <g id="patch_1">
   <path d="M 0 432 
L 720 432 
L 720 0 
L 0 0 
z
" style="fill: #ffffff"/>
  </g>
  <g id="axes_1">
   <g id="patch_2">
    <path d="M 225.76125 393.54 
L 709.2 393.54 
L 709.2 25.44 
L 225.76125 25.44 
z
" style="fill: #e8e8e8"/>
   </g>
   <g id="matplotlib.axis_1">
    <g id="xtick_1">
     <g id="line2d_1">
      <path d="M 225.76125 393.54 
L 225.76125 25.44 
" clip-path="url(#p1dd44b3cd1)" style="fill: none; stroke: #ffffff; stroke-linecap: square"/>
     </g>
     <g id="line2d_2"/>
     <g id="text_1">
      <!-- 0 -->
      <g transform="translate(222.58 404.638438) scale(0.1 -0.1)">
       <defs>
        <path id="DejaVuSans-30" d="M 2034 4250 
Q 1547 4250 1301 3770 
Q 1056 3291 1056 2328 
Q 1056 1369 1301 889 
Q 1547 409 2034 409 
Q 2525 409 2770 889 
Q 3016 1369 3016 2328 
Q 3016 3291 2770 3770 
Q 2525 4250 2034 4250 
z
M 2034 4750 
Q 2819 4750 3233 4129 
Q 3647 3509 3647 2328 
Q 3647 1150 3233 529 
Q 2819 -91 2034 -91 
Q 1250 -91 836 529 
Q 422 1150 422 2328 
Q 422 3509 836 4129 
Q 1250 4750 2034 4750 
z
" transform="scale(0.015625)"/>
       </defs>
       <use xlink:href="#DejaVuSans-30"/>
      </g>
     </g>
    </g>
    <g id="xtick_2">
     <g id="line2d_3">
      <path d="M 363.886607 393.54 
L 363.886607 25.44 
" clip-path="url(#p1dd44b3cd1)" style="fill: none; stroke: #ffffff; stroke-linecap: square"/>
     </g>
     <g id="line2d_4"/>
     <g id="text_2">
      <!-- 15 -->
      <g transform="translate(357.524107 404.638438) scale(0.1 -0.1)">
       <defs>
        <path id="DejaVuSans-31" d="M 794 531 
L 1825 531 
L 1825 4091 
L 703 3866 
L 703 4441 
L 1819 4666 
L 2450 4666 
L 2450 531 
L 3481 531 
L 3481 0 
L 794 0 
L 794 531 
z
" transform="scale(0.015625)"/>
        <path id="DejaVuSans-35" d="M 691 4666 
L 3169 4666 
L 3169 4134 
L 1269 4134 
L 1269 2991 
Q 1406 3038 1543 3061 
Q 1681 3084 1819 3084 
Q 2600 3084 3056 2656 
Q 3513 2228 3513 1497 
Q 3513 744 3044 326 
Q 2575 -91 1722 -91 
Q 1428 -91 1123 -41 
Q 819 9 494 109 
L 494 744 
Q 775 591 1075 516 
Q 1375 441 1709 441 
Q 2250 441 2565 725 
Q 2881 1009 2881 1497 
Q 2881 1984 2565 2268 
Q 2250 2553 1709 2553 
Q 1456 2553 1204 2497 
Q 953 2441 691 2322 
L 691 4666 
z
" transform="scale(0.015625)"/>
       </defs>
       <use xlink:href="#DejaVuSans-31"/>
       <use xlink:href="#DejaVuSans-35" x="63.623047"/>
      </g>
     </g>
    </g>
    <g id="xtick_3">
     <g id="line2d_5">
      <path d="M 502.011964 393.54 
L 502.011964 25.44 
" clip-path="url(#p1dd44b3cd1)" style="fill: none; stroke: #ffffff; stroke-linecap: square"/>
     </g>
     <g id="line2d_6"/>
     <g id="text_3">
      <!-- 30 -->
      <g transform="translate(495.649464 404.638438) scale(0.1 -0.1)">
       <defs>
        <path id="DejaVuSans-33" d="M 2597 2516 
Q 3050 2419 3304 2112 
Q 3559 1806 3559 1356 
Q 3559 666 3084 287 
Q 2609 -91 1734 -91 
Q 1441 -91 1130 -33 
Q 819 25 488 141 
L 488 750 
Q 750 597 1062 519 
Q 1375 441 1716 441 
Q 2309 441 2620 675 
Q 2931 909 2931 1356 
Q 2931 1769 2642 2001 
Q 2353 2234 1838 2234 
L 1294 2234 
L 1294 2753 
L 1863 2753 
Q 2328 2753 2575 2939 
Q 2822 3125 2822 3475 
Q 2822 3834 2567 4026 
Q 2313 4219 1838 4219 
Q 1578 4219 1281 4162 
Q 984 4106 628 3988 
L 628 4550 
Q 988 4650 1302 4700 
Q 1616 4750 1894 4750 
Q 2613 4750 3031 4423 
Q 3450 4097 3450 3541 
Q 3450 3153 3228 2886 
Q 3006 2619 2597 2516 
z
" transform="scale(0.015625)"/>
       </defs>
       <use xlink:href="#DejaVuSans-33"/>
       <use xlink:href="#DejaVuSans-30" x="63.623047"/>
      </g>
     </g>
    </g>
    <g id="xtick_4">
     <g id="line2d_7">
      <path d="M 640.137321 393.54 
L 640.137321 25.44 
" clip-path="url(#p1dd44b3cd1)" style="fill: none; stroke: #ffffff; stroke-linecap: square"/>
     </g>
     <g id="line2d_8"/>
     <g id="text_4">
      <!-- 45 -->
      <g transform="translate(633.774821 404.638438) scale(0.1 -0.1)">
       <defs>
        <path id="DejaVuSans-34" d="M 2419 4116 
L 825 1625 
L 2419 1625 
L 2419 4116 
z
M 2253 4666 
L 3047 4666 
L 3047 1625 
L 3713 1625 
L 3713 1100 
L 3047 1100 
L 3047 0 
L 2419 0 
L 2419 1100 
L 313 1100 
L 313 1709 
L 2253 4666 
z
" transform="scale(0.015625)"/>
       </defs>
       <use xlink:href="#DejaVuSans-34"/>
       <use xlink:href="#DejaVuSans-35" x="63.623047"/>
      </g>
     </g>
    </g>
    <g id="text_5">
     <!-- Percentage -->
     <g transform="translate(439.357969 418.316562) scale(0.1 -0.1)">
      <defs>
       <path id="DejaVuSans-50" d="M 1259 4147 
L 1259 2394 
L 2053 2394 
Q 2494 2394 2734 2622 
Q 2975 2850 2975 3272 
Q 2975 3691 2734 3919 
Q 2494 4147 2053 4147 
L 1259 4147 
z
M 628 4666 
L 2053 4666 
Q 2838 4666 3239 4311 
Q 3641 3956 3641 3272 
Q 3641 2581 3239 2228 
Q 2838 1875 2053 1875 
L 1259 1875 
L 1259 0 
L 628 0 
L 628 4666 
z
" transform="scale(0.015625)"/>
       <path id="DejaVuSans-65" d="M 3597 1894 
L 3597 1613 
L 953 1613 
Q 991 1019 1311 708 
Q 1631 397 2203 397 
Q 2534 397 2845 478 
Q 3156 559 3463 722 
L 3463 178 
Q 3153 47 2828 -22 
Q 2503 -91 2169 -91 
Q 1331 -91 842 396 
Q 353 884 353 1716 
Q 353 2575 817 3079 
Q 1281 3584 2069 3584 
Q 2775 3584 3186 3129 
Q 3597 2675 3597 1894 
z
M 3022 2063 
Q 3016 2534 2758 2815 
Q 2500 3097 2075 3097 
Q 1594 3097 1305 2825 
Q 1016 2553 972 2059 
L 3022 2063 
z
" transform="scale(0.015625)"/>
       <path id="DejaVuSans-72" d="M 2631 2963 
Q 2534 3019 2420 3045 
Q 2306 3072 2169 3072 
Q 1681 3072 1420 2755 
Q 1159 2438 1159 1844 
L 1159 0 
L 581 0 
L 581 3500 
L 1159 3500 
L 1159 2956 
Q 1341 3275 1631 3429 
Q 1922 3584 2338 3584 
Q 2397 3584 2469 3576 
Q 2541 3569 2628 3553 
L 2631 2963 
z
" transform="scale(0.015625)"/>
       <path id="DejaVuSans-63" d="M 3122 3366 
L 3122 2828 
Q 2878 2963 2633 3030 
Q 2388 3097 2138 3097 
Q 1578 3097 1268 2742 
Q 959 2388 959 1747 
Q 959 1106 1268 751 
Q 1578 397 2138 397 
Q 2388 397 2633 464 
Q 2878 531 3122 666 
L 3122 134 
Q 2881 22 2623 -34 
Q 2366 -91 2075 -91 
Q 1284 -91 818 406 
Q 353 903 353 1747 
Q 353 2603 823 3093 
Q 1294 3584 2113 3584 
Q 2378 3584 2631 3529 
Q 2884 3475 3122 3366 
z
" transform="scale(0.015625)"/>
       <path id="DejaVuSans-6e" d="M 3513 2113 
L 3513 0 
L 2938 0 
L 2938 2094 
Q 2938 2591 2744 2837 
Q 2550 3084 2163 3084 
Q 1697 3084 1428 2787 
Q 1159 2491 1159 1978 
L 1159 0 
L 581 0 
L 581 3500 
L 1159 3500 
L 1159 2956 
Q 1366 3272 1645 3428 
Q 1925 3584 2291 3584 
Q 2894 3584 3203 3211 
Q 3513 2838 3513 2113 
z
" transform="scale(0.015625)"/>
       <path id="DejaVuSans-74" d="M 1172 4494 
L 1172 3500 
L 2356 3500 
L 2356 3053 
L 1172 3053 
L 1172 1153 
Q 1172 725 1289 603 
Q 1406 481 1766 481 
L 2356 481 
L 2356 0 
L 1766 0 
Q 1100 0 847 248 
Q 594 497 594 1153 
L 594 3053 
L 172 3053 
L 172 3500 
L 594 3500 
L 594 4494 
L 1172 4494 
z
" transform="scale(0.015625)"/>
       <path id="DejaVuSans-61" d="M 2194 1759 
Q 1497 1759 1228 1600 
Q 959 1441 959 1056 
Q 959 750 1161 570 
Q 1363 391 1709 391 
Q 2188 391 2477 730 
Q 2766 1069 2766 1631 
L 2766 1759 
L 2194 1759 
z
M 3341 1997 
L 3341 0 
L 2766 0 
L 2766 531 
Q 2569 213 2275 61 
Q 1981 -91 1556 -91 
Q 1019 -91 701 211 
Q 384 513 384 1019 
Q 384 1609 779 1909 
Q 1175 2209 1959 2209 
L 2766 2209 
L 2766 2266 
Q 2766 2663 2505 2880 
Q 2244 3097 1772 3097 
Q 1472 3097 1187 3025 
Q 903 2953 641 2809 
L 641 3341 
Q 956 3463 1253 3523 
Q 1550 3584 1831 3584 
Q 2591 3584 2966 3190 
Q 3341 2797 3341 1997 
z
" transform="scale(0.015625)"/>
       <path id="DejaVuSans-67" d="M 2906 1791 
Q 2906 2416 2648 2759 
Q 2391 3103 1925 3103 
Q 1463 3103 1205 2759 
Q 947 2416 947 1791 
Q 947 1169 1205 825 
Q 1463 481 1925 481 
Q 2391 481 2648 825 
Q 2906 1169 2906 1791 
z
M 3481 434 
Q 3481 -459 3084 -895 
Q 2688 -1331 1869 -1331 
Q 1566 -1331 1297 -1286 
Q 1028 -1241 775 -1147 
L 775 -588 
Q 1028 -725 1275 -790 
Q 1522 -856 1778 -856 
Q 2344 -856 2625 -561 
Q 2906 -266 2906 331 
L 2906 616 
Q 2728 306 2450 153 
Q 2172 0 1784 0 
Q 1141 0 747 490 
Q 353 981 353 1791 
Q 353 2603 747 3093 
Q 1141 3584 1784 3584 
Q 2172 3584 2450 3431 
Q 2728 3278 2906 2969 
L 2906 3500 
L 3481 3500 
L 3481 434 
z
" transform="scale(0.015625)"/>
      </defs>
      <use xlink:href="#DejaVuSans-50"/>
      <use xlink:href="#DejaVuSans-65" x="56.677734"/>
      <use xlink:href="#DejaVuSans-72" x="118.201172"/>
      <use xlink:href="#DejaVuSans-63" x="157.064453"/>
      <use xlink:href="#DejaVuSans-65" x="212.044922"/>
      <use xlink:href="#DejaVuSans-6e" x="273.568359"/>
      <use xlink:href="#DejaVuSans-74" x="336.947266"/>
      <use xlink:href="#DejaVuSans-61" x="376.15625"/>
      <use xlink:href="#DejaVuSans-67" x="437.435547"/>
      <use xlink:href="#DejaVuSans-65" x="500.912109"/>
     </g>
    </g>
   </g>
   <g id="matplotlib.axis_2">
    <g id="ytick_1">
     <g id="line2d_9"/>
     <g id="line2d_10"/>
     <g id="text_6">
      <!-- Doesn't integrate into our tech stack -->
      <g transform="translate(38.155 55.532076) scale(0.1 -0.1)">
       <defs>
        <path id="DejaVuSans-44" d="M 1259 4147 
L 1259 519 
L 2022 519 
Q 2988 519 3436 956 
Q 3884 1394 3884 2338 
Q 3884 3275 3436 3711 
Q 2988 4147 2022 4147 
L 1259 4147 
z
M 628 4666 
L 1925 4666 
Q 3281 4666 3915 4102 
Q 4550 3538 4550 2338 
Q 4550 1131 3912 565 
Q 3275 0 1925 0 
L 628 0 
L 628 4666 
z
" transform="scale(0.015625)"/>
        <path id="DejaVuSans-6f" d="M 1959 3097 
Q 1497 3097 1228 2736 
Q 959 2375 959 1747 
Q 959 1119 1226 758 
Q 1494 397 1959 397 
Q 2419 397 2687 759 
Q 2956 1122 2956 1747 
Q 2956 2369 2687 2733 
Q 2419 3097 1959 3097 
z
M 1959 3584 
Q 2709 3584 3137 3096 
Q 3566 2609 3566 1747 
Q 3566 888 3137 398 
Q 2709 -91 1959 -91 
Q 1206 -91 779 398 
Q 353 888 353 1747 
Q 353 2609 779 3096 
Q 1206 3584 1959 3584 
z
" transform="scale(0.015625)"/>
        <path id="DejaVuSans-73" d="M 2834 3397 
L 2834 2853 
Q 2591 2978 2328 3040 
Q 2066 3103 1784 3103 
Q 1356 3103 1142 2972 
Q 928 2841 928 2578 
Q 928 2378 1081 2264 
Q 1234 2150 1697 2047 
L 1894 2003 
Q 2506 1872 2764 1633 
Q 3022 1394 3022 966 
Q 3022 478 2636 193 
Q 2250 -91 1575 -91 
Q 1294 -91 989 -36 
Q 684 19 347 128 
L 347 722 
Q 666 556 975 473 
Q 1284 391 1588 391 
Q 1994 391 2212 530 
Q 2431 669 2431 922 
Q 2431 1156 2273 1281 
Q 2116 1406 1581 1522 
L 1381 1569 
Q 847 1681 609 1914 
Q 372 2147 372 2553 
Q 372 3047 722 3315 
Q 1072 3584 1716 3584 
Q 2034 3584 2315 3537 
Q 2597 3491 2834 3397 
z
" transform="scale(0.015625)"/>
        <path id="DejaVuSans-27" d="M 1147 4666 
L 1147 2931 
L 616 2931 
L 616 4666 
L 1147 4666 
z
" transform="scale(0.015625)"/>
        <path id="DejaVuSans-20" transform="scale(0.015625)"/>
        <path id="DejaVuSans-69" d="M 603 3500 
L 1178 3500 
L 1178 0 
L 603 0 
L 603 3500 
z
M 603 4863 
L 1178 4863 
L 1178 4134 
L 603 4134 
L 603 4863 
z
" transform="scale(0.015625)"/>
        <path id="DejaVuSans-75" d="M 544 1381 
L 544 3500 
L 1119 3500 
L 1119 1403 
Q 1119 906 1312 657 
Q 1506 409 1894 409 
Q 2359 409 2629 706 
Q 2900 1003 2900 1516 
L 2900 3500 
L 3475 3500 
L 3475 0 
L 2900 0 
L 2900 538 
Q 2691 219 2414 64 
Q 2138 -91 1772 -91 
Q 1169 -91 856 284 
Q 544 659 544 1381 
z
M 1991 3584 
L 1991 3584 
z
" transform="scale(0.015625)"/>
        <path id="DejaVuSans-68" d="M 3513 2113 
L 3513 0 
L 2938 0 
L 2938 2094 
Q 2938 2591 2744 2837 
Q 2550 3084 2163 3084 
Q 1697 3084 1428 2787 
Q 1159 2491 1159 1978 
L 1159 0 
L 581 0 
L 581 4863 
L 1159 4863 
L 1159 2956 
Q 1366 3272 1645 3428 
Q 1925 3584 2291 3584 
Q 2894 3584 3203 3211 
Q 3513 2838 3513 2113 
z
" transform="scale(0.015625)"/>
        <path id="DejaVuSans-6b" d="M 581 4863 
L 1159 4863 
L 1159 1991 
L 2875 3500 
L 3609 3500 
L 1753 1863 
L 3688 0 
L 2938 0 
L 1159 1709 
L 1159 0 
L 581 0 
L 581 4863 
z
" transform="scale(0.015625)"/>
       </defs>
       <use xlink:href="#DejaVuSans-44"/>
       <use xlink:href="#DejaVuSans-6f" x="77.001953"/>
       <use xlink:href="#DejaVuSans-65" x="138.183594"/>
       <use xlink:href="#DejaVuSans-73" x="199.707031"/>
       <use xlink:href="#DejaVuSans-6e" x="251.806641"/>
       <use xlink:href="#DejaVuSans-27" x="315.185547"/>
       <use xlink:href="#DejaVuSans-74" x="342.675781"/>
       <use xlink:href="#DejaVuSans-20" x="381.884766"/>
       <use xlink:href="#DejaVuSans-69" x="413.671875"/>
       <use xlink:href="#DejaVuSans-6e" x="441.455078"/>
       <use xlink:href="#DejaVuSans-74" x="504.833984"/>
       <use xlink:href="#DejaVuSans-65" x="544.042969"/>
       <use xlink:href="#DejaVuSans-67" x="605.566406"/>
       <use xlink:href="#DejaVuSans-72" x="669.042969"/>
       <use xlink:href="#DejaVuSans-61" x="710.15625"/>
       <use xlink:href="#DejaVuSans-74" x="771.435547"/>
       <use xlink:href="#DejaVuSans-65" x="810.644531"/>
       <use xlink:href="#DejaVuSans-20" x="872.167969"/>
       <use xlink:href="#DejaVuSans-69" x="903.955078"/>
       <use xlink:href="#DejaVuSans-6e" x="931.738281"/>
       <use xlink:href="#DejaVuSans-74" x="995.117188"/>
       <use xlink:href="#DejaVuSans-6f" x="1034.326172"/>
       <use xlink:href="#DejaVuSans-20" x="1095.507812"/>
       <use xlink:href="#DejaVuSans-6f" x="1127.294922"/>
       <use xlink:href="#DejaVuSans-75" x="1188.476562"/>
       <use xlink:href="#DejaVuSans-72" x="1251.855469"/>
       <use xlink:href="#DejaVuSans-20" x="1292.96875"/>
       <use xlink:href="#DejaVuSans-74" x="1324.755859"/>
       <use xlink:href="#DejaVuSans-65" x="1363.964844"/>
       <use xlink:href="#DejaVuSans-63" x="1425.488281"/>
       <use xlink:href="#DejaVuSans-68" x="1480.46875"/>
       <use xlink:href="#DejaVuSans-20" x="1543.847656"/>
       <use xlink:href="#DejaVuSans-73" x="1575.634766"/>
       <use xlink:href="#DejaVuSans-74" x="1627.734375"/>
       <use xlink:href="#DejaVuSans-61" x="1666.943359"/>
       <use xlink:href="#DejaVuSans-63" x="1728.222656"/>
       <use xlink:href="#DejaVuSans-6b" x="1783.203125"/>
      </g>
     </g>
    </g>
    <g id="ytick_2">
     <g id="line2d_11"/>
     <g id="line2d_12"/>
     <g id="text_7">
      <!-- Doesn't fit into our governance process -->
      <g transform="translate(24.889375 108.11779) scale(0.1 -0.1)">
       <defs>
        <path id="DejaVuSans-66" d="M 2375 4863 
L 2375 4384 
L 1825 4384 
Q 1516 4384 1395 4259 
Q 1275 4134 1275 3809 
L 1275 3500 
L 2222 3500 
L 2222 3053 
L 1275 3053 
L 1275 0 
L 697 0 
L 697 3053 
L 147 3053 
L 147 3500 
L 697 3500 
L 697 3744 
Q 697 4328 969 4595 
Q 1241 4863 1831 4863 
L 2375 4863 
z
" transform="scale(0.015625)"/>
        <path id="DejaVuSans-76" d="M 191 3500 
L 800 3500 
L 1894 563 
L 2988 3500 
L 3597 3500 
L 2284 0 
L 1503 0 
L 191 3500 
z
" transform="scale(0.015625)"/>
        <path id="DejaVuSans-70" d="M 1159 525 
L 1159 -1331 
L 581 -1331 
L 581 3500 
L 1159 3500 
L 1159 2969 
Q 1341 3281 1617 3432 
Q 1894 3584 2278 3584 
Q 2916 3584 3314 3078 
Q 3713 2572 3713 1747 
Q 3713 922 3314 415 
Q 2916 -91 2278 -91 
Q 1894 -91 1617 61 
Q 1341 213 1159 525 
z
M 3116 1747 
Q 3116 2381 2855 2742 
Q 2594 3103 2138 3103 
Q 1681 3103 1420 2742 
Q 1159 2381 1159 1747 
Q 1159 1113 1420 752 
Q 1681 391 2138 391 
Q 2594 391 2855 752 
Q 3116 1113 3116 1747 
z
" transform="scale(0.015625)"/>
       </defs>
       <use xlink:href="#DejaVuSans-44"/>
       <use xlink:href="#DejaVuSans-6f" x="77.001953"/>
       <use xlink:href="#DejaVuSans-65" x="138.183594"/>
       <use xlink:href="#DejaVuSans-73" x="199.707031"/>
       <use xlink:href="#DejaVuSans-6e" x="251.806641"/>
       <use xlink:href="#DejaVuSans-27" x="315.185547"/>
       <use xlink:href="#DejaVuSans-74" x="342.675781"/>
       <use xlink:href="#DejaVuSans-20" x="381.884766"/>
       <use xlink:href="#DejaVuSans-66" x="413.671875"/>
       <use xlink:href="#DejaVuSans-69" x="448.876953"/>
       <use xlink:href="#DejaVuSans-74" x="476.660156"/>
       <use xlink:href="#DejaVuSans-20" x="515.869141"/>
       <use xlink:href="#DejaVuSans-69" x="547.65625"/>
       <use xlink:href="#DejaVuSans-6e" x="575.439453"/>
       <use xlink:href="#DejaVuSans-74" x="638.818359"/>
       <use xlink:href="#DejaVuSans-6f" x="678.027344"/>
       <use xlink:href="#DejaVuSans-20" x="739.208984"/>
       <use xlink:href="#DejaVuSans-6f" x="770.996094"/>
       <use xlink:href="#DejaVuSans-75" x="832.177734"/>
       <use xlink:href="#DejaVuSans-72" x="895.556641"/>
       <use xlink:href="#DejaVuSans-20" x="936.669922"/>
       <use xlink:href="#DejaVuSans-67" x="968.457031"/>
       <use xlink:href="#DejaVuSans-6f" x="1031.933594"/>
       <use xlink:href="#DejaVuSans-76" x="1093.115234"/>
       <use xlink:href="#DejaVuSans-65" x="1152.294922"/>
       <use xlink:href="#DejaVuSans-72" x="1213.818359"/>
       <use xlink:href="#DejaVuSans-6e" x="1253.181641"/>
       <use xlink:href="#DejaVuSans-61" x="1316.560547"/>
       <use xlink:href="#DejaVuSans-6e" x="1377.839844"/>
       <use xlink:href="#DejaVuSans-63" x="1441.21875"/>
       <use xlink:href="#DejaVuSans-65" x="1496.199219"/>
       <use xlink:href="#DejaVuSans-20" x="1557.722656"/>
       <use xlink:href="#DejaVuSans-70" x="1589.509766"/>
       <use xlink:href="#DejaVuSans-72" x="1652.986328"/>
       <use xlink:href="#DejaVuSans-6f" x="1691.849609"/>
       <use xlink:href="#DejaVuSans-63" x="1753.03125"/>
       <use xlink:href="#DejaVuSans-65" x="1808.011719"/>
       <use xlink:href="#DejaVuSans-73" x="1869.535156"/>
       <use xlink:href="#DejaVuSans-73" x="1921.634766"/>
      </g>
     </g>
    </g>
    <g id="ytick_3">
     <g id="line2d_13"/>
     <g id="line2d_14"/>
     <g id="text_8">
      <!-- Internal resistance -->
      <g transform="translate(129.269063 160.703504) scale(0.1 -0.1)">
       <defs>
        <path id="DejaVuSans-49" d="M 628 4666 
L 1259 4666 
L 1259 0 
L 628 0 
L 628 4666 
z
" transform="scale(0.015625)"/>
        <path id="DejaVuSans-6c" d="M 603 4863 
L 1178 4863 
L 1178 0 
L 603 0 
L 603 4863 
z
" transform="scale(0.015625)"/>
       </defs>
       <use xlink:href="#DejaVuSans-49"/>
       <use xlink:href="#DejaVuSans-6e" x="29.492188"/>
       <use xlink:href="#DejaVuSans-74" x="92.871094"/>
       <use xlink:href="#DejaVuSans-65" x="132.080078"/>
       <use xlink:href="#DejaVuSans-72" x="193.603516"/>
       <use xlink:href="#DejaVuSans-6e" x="232.966797"/>
       <use xlink:href="#DejaVuSans-61" x="296.345703"/>
       <use xlink:href="#DejaVuSans-6c" x="357.625"/>
       <use xlink:href="#DejaVuSans-20" x="385.408203"/>
       <use xlink:href="#DejaVuSans-72" x="417.195312"/>
       <use xlink:href="#DejaVuSans-65" x="456.058594"/>
       <use xlink:href="#DejaVuSans-73" x="517.582031"/>
       <use xlink:href="#DejaVuSans-69" x="569.681641"/>
       <use xlink:href="#DejaVuSans-73" x="597.464844"/>
       <use xlink:href="#DejaVuSans-74" x="649.564453"/>
       <use xlink:href="#DejaVuSans-61" x="688.773438"/>
       <use xlink:href="#DejaVuSans-6e" x="750.052734"/>
       <use xlink:href="#DejaVuSans-63" x="813.431641"/>
       <use xlink:href="#DejaVuSans-65" x="868.412109"/>
      </g>
     </g>
    </g>
    <g id="ytick_4">
     <g id="line2d_15"/>
     <g id="line2d_16"/>
     <g id="text_9">
      <!-- No time to spend on ethical assurance -->
      <g transform="translate(29.401875 213.289219) scale(0.1 -0.1)">
       <defs>
        <path id="DejaVuSans-4e" d="M 628 4666 
L 1478 4666 
L 3547 763 
L 3547 4666 
L 4159 4666 
L 4159 0 
L 3309 0 
L 1241 3903 
L 1241 0 
L 628 0 
L 628 4666 
z
" transform="scale(0.015625)"/>
        <path id="DejaVuSans-6d" d="M 3328 2828 
Q 3544 3216 3844 3400 
Q 4144 3584 4550 3584 
Q 5097 3584 5394 3201 
Q 5691 2819 5691 2113 
L 5691 0 
L 5113 0 
L 5113 2094 
Q 5113 2597 4934 2840 
Q 4756 3084 4391 3084 
Q 3944 3084 3684 2787 
Q 3425 2491 3425 1978 
L 3425 0 
L 2847 0 
L 2847 2094 
Q 2847 2600 2669 2842 
Q 2491 3084 2119 3084 
Q 1678 3084 1418 2786 
Q 1159 2488 1159 1978 
L 1159 0 
L 581 0 
L 581 3500 
L 1159 3500 
L 1159 2956 
Q 1356 3278 1631 3431 
Q 1906 3584 2284 3584 
Q 2666 3584 2933 3390 
Q 3200 3197 3328 2828 
z
" transform="scale(0.015625)"/>
        <path id="DejaVuSans-64" d="M 2906 2969 
L 2906 4863 
L 3481 4863 
L 3481 0 
L 2906 0 
L 2906 525 
Q 2725 213 2448 61 
Q 2172 -91 1784 -91 
Q 1150 -91 751 415 
Q 353 922 353 1747 
Q 353 2572 751 3078 
Q 1150 3584 1784 3584 
Q 2172 3584 2448 3432 
Q 2725 3281 2906 2969 
z
M 947 1747 
Q 947 1113 1208 752 
Q 1469 391 1925 391 
Q 2381 391 2643 752 
Q 2906 1113 2906 1747 
Q 2906 2381 2643 2742 
Q 2381 3103 1925 3103 
Q 1469 3103 1208 2742 
Q 947 2381 947 1747 
z
" transform="scale(0.015625)"/>
       </defs>
       <use xlink:href="#DejaVuSans-4e"/>
       <use xlink:href="#DejaVuSans-6f" x="74.804688"/>
       <use xlink:href="#DejaVuSans-20" x="135.986328"/>
       <use xlink:href="#DejaVuSans-74" x="167.773438"/>
       <use xlink:href="#DejaVuSans-69" x="206.982422"/>
       <use xlink:href="#DejaVuSans-6d" x="234.765625"/>
       <use xlink:href="#DejaVuSans-65" x="332.177734"/>
       <use xlink:href="#DejaVuSans-20" x="393.701172"/>
       <use xlink:href="#DejaVuSans-74" x="425.488281"/>
       <use xlink:href="#DejaVuSans-6f" x="464.697266"/>
       <use xlink:href="#DejaVuSans-20" x="525.878906"/>
       <use xlink:href="#DejaVuSans-73" x="557.666016"/>
       <use xlink:href="#DejaVuSans-70" x="609.765625"/>
       <use xlink:href="#DejaVuSans-65" x="673.242188"/>
       <use xlink:href="#DejaVuSans-6e" x="734.765625"/>
       <use xlink:href="#DejaVuSans-64" x="798.144531"/>
       <use xlink:href="#DejaVuSans-20" x="861.621094"/>
       <use xlink:href="#DejaVuSans-6f" x="893.408203"/>
       <use xlink:href="#DejaVuSans-6e" x="954.589844"/>
       <use xlink:href="#DejaVuSans-20" x="1017.96875"/>
       <use xlink:href="#DejaVuSans-65" x="1049.755859"/>
       <use xlink:href="#DejaVuSans-74" x="1111.279297"/>
       <use xlink:href="#DejaVuSans-68" x="1150.488281"/>
       <use xlink:href="#DejaVuSans-69" x="1213.867188"/>
       <use xlink:href="#DejaVuSans-63" x="1241.650391"/>
       <use xlink:href="#DejaVuSans-61" x="1296.630859"/>
       <use xlink:href="#DejaVuSans-6c" x="1357.910156"/>
       <use xlink:href="#DejaVuSans-20" x="1385.693359"/>
       <use xlink:href="#DejaVuSans-61" x="1417.480469"/>
       <use xlink:href="#DejaVuSans-73" x="1478.759766"/>
       <use xlink:href="#DejaVuSans-73" x="1530.859375"/>
       <use xlink:href="#DejaVuSans-75" x="1582.958984"/>
       <use xlink:href="#DejaVuSans-72" x="1646.337891"/>
       <use xlink:href="#DejaVuSans-61" x="1687.451172"/>
       <use xlink:href="#DejaVuSans-6e" x="1748.730469"/>
       <use xlink:href="#DejaVuSans-63" x="1812.109375"/>
       <use xlink:href="#DejaVuSans-65" x="1867.089844"/>
      </g>
     </g>
    </g>
    <g id="ytick_5">
     <g id="line2d_17"/>
     <g id="line2d_18"/>
     <g id="text_10">
      <!-- Cost prohibitive -->
      <g transform="translate(143.48625 265.874933) scale(0.1 -0.1)">
       <defs>
        <path id="DejaVuSans-43" d="M 4122 4306 
L 4122 3641 
Q 3803 3938 3442 4084 
Q 3081 4231 2675 4231 
Q 1875 4231 1450 3742 
Q 1025 3253 1025 2328 
Q 1025 1406 1450 917 
Q 1875 428 2675 428 
Q 3081 428 3442 575 
Q 3803 722 4122 1019 
L 4122 359 
Q 3791 134 3420 21 
Q 3050 -91 2638 -91 
Q 1578 -91 968 557 
Q 359 1206 359 2328 
Q 359 3453 968 4101 
Q 1578 4750 2638 4750 
Q 3056 4750 3426 4639 
Q 3797 4528 4122 4306 
z
" transform="scale(0.015625)"/>
        <path id="DejaVuSans-62" d="M 3116 1747 
Q 3116 2381 2855 2742 
Q 2594 3103 2138 3103 
Q 1681 3103 1420 2742 
Q 1159 2381 1159 1747 
Q 1159 1113 1420 752 
Q 1681 391 2138 391 
Q 2594 391 2855 752 
Q 3116 1113 3116 1747 
z
M 1159 2969 
Q 1341 3281 1617 3432 
Q 1894 3584 2278 3584 
Q 2916 3584 3314 3078 
Q 3713 2572 3713 1747 
Q 3713 922 3314 415 
Q 2916 -91 2278 -91 
Q 1894 -91 1617 61 
Q 1341 213 1159 525 
L 1159 0 
L 581 0 
L 581 4863 
L 1159 4863 
L 1159 2969 
z
" transform="scale(0.015625)"/>
       </defs>
       <use xlink:href="#DejaVuSans-43"/>
       <use xlink:href="#DejaVuSans-6f" x="69.824219"/>
       <use xlink:href="#DejaVuSans-73" x="131.005859"/>
       <use xlink:href="#DejaVuSans-74" x="183.105469"/>
       <use xlink:href="#DejaVuSans-20" x="222.314453"/>
       <use xlink:href="#DejaVuSans-70" x="254.101562"/>
       <use xlink:href="#DejaVuSans-72" x="317.578125"/>
       <use xlink:href="#DejaVuSans-6f" x="356.441406"/>
       <use xlink:href="#DejaVuSans-68" x="417.623047"/>
       <use xlink:href="#DejaVuSans-69" x="481.001953"/>
       <use xlink:href="#DejaVuSans-62" x="508.785156"/>
       <use xlink:href="#DejaVuSans-69" x="572.261719"/>
       <use xlink:href="#DejaVuSans-74" x="600.044922"/>
       <use xlink:href="#DejaVuSans-69" x="639.253906"/>
       <use xlink:href="#DejaVuSans-76" x="667.037109"/>
       <use xlink:href="#DejaVuSans-65" x="726.216797"/>
      </g>
     </g>
    </g>
    <g id="ytick_6">
     <g id="line2d_19"/>
     <g id="line2d_20"/>
     <g id="text_11">
      <!-- Unclear benefits -->
      <g transform="translate(140.337813 318.460647) scale(0.1 -0.1)">
       <defs>
        <path id="DejaVuSans-55" d="M 556 4666 
L 1191 4666 
L 1191 1831 
Q 1191 1081 1462 751 
Q 1734 422 2344 422 
Q 2950 422 3222 751 
Q 3494 1081 3494 1831 
L 3494 4666 
L 4128 4666 
L 4128 1753 
Q 4128 841 3676 375 
Q 3225 -91 2344 -91 
Q 1459 -91 1007 375 
Q 556 841 556 1753 
L 556 4666 
z
" transform="scale(0.015625)"/>
       </defs>
       <use xlink:href="#DejaVuSans-55"/>
       <use xlink:href="#DejaVuSans-6e" x="73.193359"/>
       <use xlink:href="#DejaVuSans-63" x="136.572266"/>
       <use xlink:href="#DejaVuSans-6c" x="191.552734"/>
       <use xlink:href="#DejaVuSans-65" x="219.335938"/>
       <use xlink:href="#DejaVuSans-61" x="280.859375"/>
       <use xlink:href="#DejaVuSans-72" x="342.138672"/>
       <use xlink:href="#DejaVuSans-20" x="383.251953"/>
       <use xlink:href="#DejaVuSans-62" x="415.039062"/>
       <use xlink:href="#DejaVuSans-65" x="478.515625"/>
       <use xlink:href="#DejaVuSans-6e" x="540.039062"/>
       <use xlink:href="#DejaVuSans-65" x="603.417969"/>
       <use xlink:href="#DejaVuSans-66" x="664.941406"/>
       <use xlink:href="#DejaVuSans-69" x="700.146484"/>
       <use xlink:href="#DejaVuSans-74" x="727.929688"/>
       <use xlink:href="#DejaVuSans-73" x="767.138672"/>
      </g>
     </g>
    </g>
    <g id="ytick_7">
     <g id="line2d_21"/>
     <g id="line2d_22"/>
     <g id="text_12">
      <!-- Lack of expertise to implement -->
      <g transform="translate(66.36125 371.046362) scale(0.1 -0.1)">
       <defs>
        <path id="DejaVuSans-4c" d="M 628 4666 
L 1259 4666 
L 1259 531 
L 3531 531 
L 3531 0 
L 628 0 
L 628 4666 
z
" transform="scale(0.015625)"/>
        <path id="DejaVuSans-78" d="M 3513 3500 
L 2247 1797 
L 3578 0 
L 2900 0 
L 1881 1375 
L 863 0 
L 184 0 
L 1544 1831 
L 300 3500 
L 978 3500 
L 1906 2253 
L 2834 3500 
L 3513 3500 
z
" transform="scale(0.015625)"/>
       </defs>
       <use xlink:href="#DejaVuSans-4c"/>
       <use xlink:href="#DejaVuSans-61" x="55.712891"/>
       <use xlink:href="#DejaVuSans-63" x="116.992188"/>
       <use xlink:href="#DejaVuSans-6b" x="171.972656"/>
       <use xlink:href="#DejaVuSans-20" x="229.882812"/>
       <use xlink:href="#DejaVuSans-6f" x="261.669922"/>
       <use xlink:href="#DejaVuSans-66" x="322.851562"/>
       <use xlink:href="#DejaVuSans-20" x="358.056641"/>
       <use xlink:href="#DejaVuSans-65" x="389.84375"/>
       <use xlink:href="#DejaVuSans-78" x="449.617188"/>
       <use xlink:href="#DejaVuSans-70" x="508.796875"/>
       <use xlink:href="#DejaVuSans-65" x="572.273438"/>
       <use xlink:href="#DejaVuSans-72" x="633.796875"/>
       <use xlink:href="#DejaVuSans-74" x="674.910156"/>
       <use xlink:href="#DejaVuSans-69" x="714.119141"/>
       <use xlink:href="#DejaVuSans-73" x="741.902344"/>
       <use xlink:href="#DejaVuSans-65" x="794.001953"/>
       <use xlink:href="#DejaVuSans-20" x="855.525391"/>
       <use xlink:href="#DejaVuSans-74" x="887.3125"/>
       <use xlink:href="#DejaVuSans-6f" x="926.521484"/>
       <use xlink:href="#DejaVuSans-20" x="987.703125"/>
       <use xlink:href="#DejaVuSans-69" x="1019.490234"/>
       <use xlink:href="#DejaVuSans-6d" x="1047.273438"/>
       <use xlink:href="#DejaVuSans-70" x="1144.685547"/>
       <use xlink:href="#DejaVuSans-6c" x="1208.162109"/>
       <use xlink:href="#DejaVuSans-65" x="1235.945312"/>
       <use xlink:href="#DejaVuSans-6d" x="1297.46875"/>
       <use xlink:href="#DejaVuSans-65" x="1394.880859"/>
       <use xlink:href="#DejaVuSans-6e" x="1456.404297"/>
       <use xlink:href="#DejaVuSans-74" x="1519.783203"/>
      </g>
     </g>
    </g>
    <g id="text_13">
     <!-- challenges_adoption -->
     <g transform="translate(18.531562 260.900156) rotate(-90) scale(0.1 -0.1)">
      <defs>
       <path id="DejaVuSans-5f" d="M 3263 -1063 
L 3263 -1509 
L -63 -1509 
L -63 -1063 
L 3263 -1063 
z
" transform="scale(0.015625)"/>
      </defs>
      <use xlink:href="#DejaVuSans-63"/>
      <use xlink:href="#DejaVuSans-68" x="54.980469"/>
      <use xlink:href="#DejaVuSans-61" x="118.359375"/>
      <use xlink:href="#DejaVuSans-6c" x="179.638672"/>
      <use xlink:href="#DejaVuSans-6c" x="207.421875"/>
      <use xlink:href="#DejaVuSans-65" x="235.205078"/>
      <use xlink:href="#DejaVuSans-6e" x="296.728516"/>
      <use xlink:href="#DejaVuSans-67" x="360.107422"/>
      <use xlink:href="#DejaVuSans-65" x="423.583984"/>
      <use xlink:href="#DejaVuSans-73" x="485.107422"/>
      <use xlink:href="#DejaVuSans-5f" x="537.207031"/>
      <use xlink:href="#DejaVuSans-61" x="587.207031"/>
      <use xlink:href="#DejaVuSans-64" x="648.486328"/>
      <use xlink:href="#DejaVuSans-6f" x="711.962891"/>
      <use xlink:href="#DejaVuSans-70" x="773.144531"/>
      <use xlink:href="#DejaVuSans-74" x="836.621094"/>
      <use xlink:href="#DejaVuSans-69" x="875.830078"/>
      <use xlink:href="#DejaVuSans-6f" x="903.613281"/>
      <use xlink:href="#DejaVuSans-6e" x="964.794922"/>
     </g>
    </g>
   </g>
   <g id="line2d_23">
    <path clip-path="url(#p1dd44b3cd1)" style="fill: none; stroke: #424242; stroke-width: 2.25; stroke-linecap: square"/>
   </g>
   <g id="line2d_24">
    <path clip-path="url(#p1dd44b3cd1)" style="fill: none; stroke: #424242; stroke-width: 2.25; stroke-linecap: square"/>
   </g>
   <g id="line2d_25">
    <path clip-path="url(#p1dd44b3cd1)" style="fill: none; stroke: #424242; stroke-width: 2.25; stroke-linecap: square"/>
   </g>
   <g id="line2d_26">
    <path clip-path="url(#p1dd44b3cd1)" style="fill: none; stroke: #424242; stroke-width: 2.25; stroke-linecap: square"/>
   </g>
   <g id="line2d_27">
    <path clip-path="url(#p1dd44b3cd1)" style="fill: none; stroke: #424242; stroke-width: 2.25; stroke-linecap: square"/>
   </g>
   <g id="line2d_28">
    <path clip-path="url(#p1dd44b3cd1)" style="fill: none; stroke: #424242; stroke-width: 2.25; stroke-linecap: square"/>
   </g>
   <g id="line2d_29">
    <path clip-path="url(#p1dd44b3cd1)" style="fill: none; stroke: #424242; stroke-width: 2.25; stroke-linecap: square"/>
   </g>
   <g id="patch_3">
    <path d="M 225.76125 30.698571 
L 391.511679 30.698571 
L 391.511679 72.767143 
L 225.76125 72.767143 
z
" clip-path="url(#p1dd44b3cd1)" style="fill: #1ca3c3"/>
   </g>
   <g id="patch_4">
    <path d="M 225.76125 83.284286 
L 409.928393 83.284286 
L 409.928393 125.352857 
L 225.76125 125.352857 
z
" clip-path="url(#p1dd44b3cd1)" style="fill: #3b6d3f"/>
   </g>
   <g id="patch_5">
    <path d="M 225.76125 135.87 
L 428.345107 135.87 
L 428.345107 177.938571 
L 225.76125 177.938571 
z
" clip-path="url(#p1dd44b3cd1)" style="fill: #dad158"/>
   </g>
   <g id="patch_6">
    <path d="M 225.76125 188.455714 
L 465.178536 188.455714 
L 465.178536 230.524286 
L 225.76125 230.524286 
z
" clip-path="url(#p1dd44b3cd1)" style="fill: #ca941f"/>
   </g>
   <g id="patch_7">
    <path d="M 225.76125 241.041429 
L 483.59525 241.041429 
L 483.59525 283.11 
L 225.76125 283.11 
z
" clip-path="url(#p1dd44b3cd1)" style="fill: #bc642c"/>
   </g>
   <g id="patch_8">
    <path d="M 225.76125 293.627143 
L 594.095536 293.627143 
L 594.095536 335.695714 
L 225.76125 335.695714 
z
" clip-path="url(#p1dd44b3cd1)" style="fill: #763755"/>
   </g>
   <g id="patch_9">
    <path d="M 225.76125 346.212857 
L 686.179107 346.212857 
L 686.179107 388.281429 
L 225.76125 388.281429 
z
" clip-path="url(#p1dd44b3cd1)" style="fill: #1ca3c3"/>
   </g>
   <g id="text_14">
    <!-- Percentage of challenges_adoption based on Unique Respondents -->
    <g transform="translate(269.285625 19.44) scale(0.12 -0.12)">
     <defs>
      <path id="DejaVuSans-71" d="M 947 1747 
Q 947 1113 1208 752 
Q 1469 391 1925 391 
Q 2381 391 2643 752 
Q 2906 1113 2906 1747 
Q 2906 2381 2643 2742 
Q 2381 3103 1925 3103 
Q 1469 3103 1208 2742 
Q 947 2381 947 1747 
z
M 2906 525 
Q 2725 213 2448 61 
Q 2172 -91 1784 -91 
Q 1150 -91 751 415 
Q 353 922 353 1747 
Q 353 2572 751 3078 
Q 1150 3584 1784 3584 
Q 2172 3584 2448 3432 
Q 2725 3281 2906 2969 
L 2906 3500 
L 3481 3500 
L 3481 -1331 
L 2906 -1331 
L 2906 525 
z
" transform="scale(0.015625)"/>
      <path id="DejaVuSans-52" d="M 2841 2188 
Q 3044 2119 3236 1894 
Q 3428 1669 3622 1275 
L 4263 0 
L 3584 0 
L 2988 1197 
Q 2756 1666 2539 1819 
Q 2322 1972 1947 1972 
L 1259 1972 
L 1259 0 
L 628 0 
L 628 4666 
L 2053 4666 
Q 2853 4666 3247 4331 
Q 3641 3997 3641 3322 
Q 3641 2881 3436 2590 
Q 3231 2300 2841 2188 
z
M 1259 4147 
L 1259 2491 
L 2053 2491 
Q 2509 2491 2742 2702 
Q 2975 2913 2975 3322 
Q 2975 3731 2742 3939 
Q 2509 4147 2053 4147 
L 1259 4147 
z
" transform="scale(0.015625)"/>
     </defs>
     <use xlink:href="#DejaVuSans-50"/>
     <use xlink:href="#DejaVuSans-65" x="56.677734"/>
     <use xlink:href="#DejaVuSans-72" x="118.201172"/>
     <use xlink:href="#DejaVuSans-63" x="157.064453"/>
     <use xlink:href="#DejaVuSans-65" x="212.044922"/>
     <use xlink:href="#DejaVuSans-6e" x="273.568359"/>
     <use xlink:href="#DejaVuSans-74" x="336.947266"/>
     <use xlink:href="#DejaVuSans-61" x="376.15625"/>
     <use xlink:href="#DejaVuSans-67" x="437.435547"/>
     <use xlink:href="#DejaVuSans-65" x="500.912109"/>
     <use xlink:href="#DejaVuSans-20" x="562.435547"/>
     <use xlink:href="#DejaVuSans-6f" x="594.222656"/>
     <use xlink:href="#DejaVuSans-66" x="655.404297"/>
     <use xlink:href="#DejaVuSans-20" x="690.609375"/>
     <use xlink:href="#DejaVuSans-63" x="722.396484"/>
     <use xlink:href="#DejaVuSans-68" x="777.376953"/>
     <use xlink:href="#DejaVuSans-61" x="840.755859"/>
     <use xlink:href="#DejaVuSans-6c" x="902.035156"/>
     <use xlink:href="#DejaVuSans-6c" x="929.818359"/>
     <use xlink:href="#DejaVuSans-65" x="957.601562"/>
     <use xlink:href="#DejaVuSans-6e" x="1019.125"/>
     <use xlink:href="#DejaVuSans-67" x="1082.503906"/>
     <use xlink:href="#DejaVuSans-65" x="1145.980469"/>
     <use xlink:href="#DejaVuSans-73" x="1207.503906"/>
     <use xlink:href="#DejaVuSans-5f" x="1259.603516"/>
     <use xlink:href="#DejaVuSans-61" x="1309.603516"/>
     <use xlink:href="#DejaVuSans-64" x="1370.882812"/>
     <use xlink:href="#DejaVuSans-6f" x="1434.359375"/>
     <use xlink:href="#DejaVuSans-70" x="1495.541016"/>
     <use xlink:href="#DejaVuSans-74" x="1559.017578"/>
     <use xlink:href="#DejaVuSans-69" x="1598.226562"/>
     <use xlink:href="#DejaVuSans-6f" x="1626.009766"/>
     <use xlink:href="#DejaVuSans-6e" x="1687.191406"/>
     <use xlink:href="#DejaVuSans-20" x="1750.570312"/>
     <use xlink:href="#DejaVuSans-62" x="1782.357422"/>
     <use xlink:href="#DejaVuSans-61" x="1845.833984"/>
     <use xlink:href="#DejaVuSans-73" x="1907.113281"/>
     <use xlink:href="#DejaVuSans-65" x="1959.212891"/>
     <use xlink:href="#DejaVuSans-64" x="2020.736328"/>
     <use xlink:href="#DejaVuSans-20" x="2084.212891"/>
     <use xlink:href="#DejaVuSans-6f" x="2116"/>
     <use xlink:href="#DejaVuSans-6e" x="2177.181641"/>
     <use xlink:href="#DejaVuSans-20" x="2240.560547"/>
     <use xlink:href="#DejaVuSans-55" x="2272.347656"/>
     <use xlink:href="#DejaVuSans-6e" x="2345.541016"/>
     <use xlink:href="#DejaVuSans-69" x="2408.919922"/>
     <use xlink:href="#DejaVuSans-71" x="2436.703125"/>
     <use xlink:href="#DejaVuSans-75" x="2500.179688"/>
     <use xlink:href="#DejaVuSans-65" x="2563.558594"/>
     <use xlink:href="#DejaVuSans-20" x="2625.082031"/>
     <use xlink:href="#DejaVuSans-52" x="2656.869141"/>
     <use xlink:href="#DejaVuSans-65" x="2721.851562"/>
     <use xlink:href="#DejaVuSans-73" x="2783.375"/>
     <use xlink:href="#DejaVuSans-70" x="2835.474609"/>
     <use xlink:href="#DejaVuSans-6f" x="2898.951172"/>
     <use xlink:href="#DejaVuSans-6e" x="2960.132812"/>
     <use xlink:href="#DejaVuSans-64" x="3023.511719"/>
     <use xlink:href="#DejaVuSans-65" x="3086.988281"/>
     <use xlink:href="#DejaVuSans-6e" x="3148.511719"/>
     <use xlink:href="#DejaVuSans-74" x="3211.890625"/>
     <use xlink:href="#DejaVuSans-73" x="3251.099609"/>
    </g>
   </g>
  </g>
 </g>
 <defs>
  <clipPath id="p1dd44b3cd1">
   <rect x="225.76125" y="25.44" width="483.43875" height="368.1"/>
  </clipPath>
 </defs>
</svg>
