<?xml version="1.0" encoding="utf-8" standalone="no"?>
<!DOCTYPE svg PUBLIC "-//W3C//DTD SVG 1.1//EN"
  "http://www.w3.org/Graphics/SVG/1.1/DTD/svg11.dtd">
<svg xmlns:xlink="http://www.w3.org/1999/xlink" width="720pt" height="432pt" viewBox="0 0 720 432" xmlns="http://www.w3.org/2000/svg" version="1.1">
 <metadata>
  <rdf:RDF xmlns:dc="http://purl.org/dc/elements/1.1/" xmlns:cc="http://creativecommons.org/ns#" xmlns:rdf="http://www.w3.org/1999/02/22-rdf-syntax-ns#">
   <cc:Work>
    <dc:type rdf:resource="http://purl.org/dc/dcmitype/StillImage"/>
    <dc:date>2024-10-09T10:30:16.477526</dc:date>
    <dc:format>image/svg+xml</dc:format>
    <dc:creator>
     <cc:Agent>
      <dc:title>Matplotlib v3.8.4, https://matplotlib.org/</dc:title>
     </cc:Agent>
    </dc:creator>
   </cc:Work>
  </rdf:RDF>
 </metadata>
 <defs>
  <style type="text/css">*{stroke-linejoin: round; stroke-linecap: butt}</style>
 </defs>
 <g id="figure_1">
  <g id="patch_1">
   <path d="M 0 432 
L 720 432 
L 720 0 
L 0 0 
z
" style="fill: #ffffff"/>
  </g>
  <g id="axes_1">
   <g id="patch_2">
    <path d="M 354.77 382.02 
L 704.88 382.02 
L 704.88 34.08 
L 354.77 34.08 
z
" style="fill: #e8e8e8"/>
   </g>
   <g id="matplotlib.axis_1">
    <g id="xtick_1">
     <g id="line2d_1">
      <path d="M 354.77 382.02 
L 354.77 34.08 
" clip-path="url(#pb5ca4aafc3)" style="fill: none; stroke: #ffffff; stroke-linecap: square"/>
     </g>
     <g id="line2d_2"/>
     <g id="text_1">
      <!-- 0 -->
      <g transform="translate(350.31625 396.157812) scale(0.14 -0.14)">
       <defs>
        <path id="DejaVuSans-30" d="M 2034 4250 
Q 1547 4250 1301 3770 
Q 1056 3291 1056 2328 
Q 1056 1369 1301 889 
Q 1547 409 2034 409 
Q 2525 409 2770 889 
Q 3016 1369 3016 2328 
Q 3016 3291 2770 3770 
Q 2525 4250 2034 4250 
z
M 2034 4750 
Q 2819 4750 3233 4129 
Q 3647 3509 3647 2328 
Q 3647 1150 3233 529 
Q 2819 -91 2034 -91 
Q 1250 -91 836 529 
Q 422 1150 422 2328 
Q 422 3509 836 4129 
Q 1250 4750 2034 4750 
z
" transform="scale(0.015625)"/>
       </defs>
       <use xlink:href="#DejaVuSans-30"/>
      </g>
     </g>
    </g>
    <g id="xtick_2">
     <g id="line2d_3">
      <path d="M 458.969405 382.02 
L 458.969405 34.08 
" clip-path="url(#pb5ca4aafc3)" style="fill: none; stroke: #ffffff; stroke-linecap: square"/>
     </g>
     <g id="line2d_4"/>
     <g id="text_2">
      <!-- 20 -->
      <g transform="translate(450.061905 396.157812) scale(0.14 -0.14)">
       <defs>
        <path id="DejaVuSans-32" d="M 1228 531 
L 3431 531 
L 3431 0 
L 469 0 
L 469 531 
Q 828 903 1448 1529 
Q 2069 2156 2228 2338 
Q 2531 2678 2651 2914 
Q 2772 3150 2772 3378 
Q 2772 3750 2511 3984 
Q 2250 4219 1831 4219 
Q 1534 4219 1204 4116 
Q 875 4013 500 3803 
L 500 4441 
Q 881 4594 1212 4672 
Q 1544 4750 1819 4750 
Q 2544 4750 2975 4387 
Q 3406 4025 3406 3419 
Q 3406 3131 3298 2873 
Q 3191 2616 2906 2266 
Q 2828 2175 2409 1742 
Q 1991 1309 1228 531 
z
" transform="scale(0.015625)"/>
       </defs>
       <use xlink:href="#DejaVuSans-32"/>
       <use xlink:href="#DejaVuSans-30" x="63.623047"/>
      </g>
     </g>
    </g>
    <g id="xtick_3">
     <g id="line2d_5">
      <path d="M 563.16881 382.02 
L 563.16881 34.08 
" clip-path="url(#pb5ca4aafc3)" style="fill: none; stroke: #ffffff; stroke-linecap: square"/>
     </g>
     <g id="line2d_6"/>
     <g id="text_3">
      <!-- 40 -->
      <g transform="translate(554.26131 396.157812) scale(0.14 -0.14)">
       <defs>
        <path id="DejaVuSans-34" d="M 2419 4116 
L 825 1625 
L 2419 1625 
L 2419 4116 
z
M 2253 4666 
L 3047 4666 
L 3047 1625 
L 3713 1625 
L 3713 1100 
L 3047 1100 
L 3047 0 
L 2419 0 
L 2419 1100 
L 313 1100 
L 313 1709 
L 2253 4666 
z
" transform="scale(0.015625)"/>
       </defs>
       <use xlink:href="#DejaVuSans-34"/>
       <use xlink:href="#DejaVuSans-30" x="63.623047"/>
      </g>
     </g>
    </g>
    <g id="xtick_4">
     <g id="line2d_7">
      <path d="M 667.368214 382.02 
L 667.368214 34.08 
" clip-path="url(#pb5ca4aafc3)" style="fill: none; stroke: #ffffff; stroke-linecap: square"/>
     </g>
     <g id="line2d_8"/>
     <g id="text_4">
      <!-- 60 -->
      <g transform="translate(658.460714 396.157812) scale(0.14 -0.14)">
       <defs>
        <path id="DejaVuSans-36" d="M 2113 2584 
Q 1688 2584 1439 2293 
Q 1191 2003 1191 1497 
Q 1191 994 1439 701 
Q 1688 409 2113 409 
Q 2538 409 2786 701 
Q 3034 994 3034 1497 
Q 3034 2003 2786 2293 
Q 2538 2584 2113 2584 
z
M 3366 4563 
L 3366 3988 
Q 3128 4100 2886 4159 
Q 2644 4219 2406 4219 
Q 1781 4219 1451 3797 
Q 1122 3375 1075 2522 
Q 1259 2794 1537 2939 
Q 1816 3084 2150 3084 
Q 2853 3084 3261 2657 
Q 3669 2231 3669 1497 
Q 3669 778 3244 343 
Q 2819 -91 2113 -91 
Q 1303 -91 875 529 
Q 447 1150 447 2328 
Q 447 3434 972 4092 
Q 1497 4750 2381 4750 
Q 2619 4750 2861 4703 
Q 3103 4656 3366 4563 
z
" transform="scale(0.015625)"/>
       </defs>
       <use xlink:href="#DejaVuSans-36"/>
       <use xlink:href="#DejaVuSans-30" x="63.623047"/>
      </g>
     </g>
    </g>
    <g id="text_5">
     <!-- Percentage -->
     <g transform="translate(490.453281 413.707188) scale(0.14 -0.14)">
      <defs>
       <path id="DejaVuSans-50" d="M 1259 4147 
L 1259 2394 
L 2053 2394 
Q 2494 2394 2734 2622 
Q 2975 2850 2975 3272 
Q 2975 3691 2734 3919 
Q 2494 4147 2053 4147 
L 1259 4147 
z
M 628 4666 
L 2053 4666 
Q 2838 4666 3239 4311 
Q 3641 3956 3641 3272 
Q 3641 2581 3239 2228 
Q 2838 1875 2053 1875 
L 1259 1875 
L 1259 0 
L 628 0 
L 628 4666 
z
" transform="scale(0.015625)"/>
       <path id="DejaVuSans-65" d="M 3597 1894 
L 3597 1613 
L 953 1613 
Q 991 1019 1311 708 
Q 1631 397 2203 397 
Q 2534 397 2845 478 
Q 3156 559 3463 722 
L 3463 178 
Q 3153 47 2828 -22 
Q 2503 -91 2169 -91 
Q 1331 -91 842 396 
Q 353 884 353 1716 
Q 353 2575 817 3079 
Q 1281 3584 2069 3584 
Q 2775 3584 3186 3129 
Q 3597 2675 3597 1894 
z
M 3022 2063 
Q 3016 2534 2758 2815 
Q 2500 3097 2075 3097 
Q 1594 3097 1305 2825 
Q 1016 2553 972 2059 
L 3022 2063 
z
" transform="scale(0.015625)"/>
       <path id="DejaVuSans-72" d="M 2631 2963 
Q 2534 3019 2420 3045 
Q 2306 3072 2169 3072 
Q 1681 3072 1420 2755 
Q 1159 2438 1159 1844 
L 1159 0 
L 581 0 
L 581 3500 
L 1159 3500 
L 1159 2956 
Q 1341 3275 1631 3429 
Q 1922 3584 2338 3584 
Q 2397 3584 2469 3576 
Q 2541 3569 2628 3553 
L 2631 2963 
z
" transform="scale(0.015625)"/>
       <path id="DejaVuSans-63" d="M 3122 3366 
L 3122 2828 
Q 2878 2963 2633 3030 
Q 2388 3097 2138 3097 
Q 1578 3097 1268 2742 
Q 959 2388 959 1747 
Q 959 1106 1268 751 
Q 1578 397 2138 397 
Q 2388 397 2633 464 
Q 2878 531 3122 666 
L 3122 134 
Q 2881 22 2623 -34 
Q 2366 -91 2075 -91 
Q 1284 -91 818 406 
Q 353 903 353 1747 
Q 353 2603 823 3093 
Q 1294 3584 2113 3584 
Q 2378 3584 2631 3529 
Q 2884 3475 3122 3366 
z
" transform="scale(0.015625)"/>
       <path id="DejaVuSans-6e" d="M 3513 2113 
L 3513 0 
L 2938 0 
L 2938 2094 
Q 2938 2591 2744 2837 
Q 2550 3084 2163 3084 
Q 1697 3084 1428 2787 
Q 1159 2491 1159 1978 
L 1159 0 
L 581 0 
L 581 3500 
L 1159 3500 
L 1159 2956 
Q 1366 3272 1645 3428 
Q 1925 3584 2291 3584 
Q 2894 3584 3203 3211 
Q 3513 2838 3513 2113 
z
" transform="scale(0.015625)"/>
       <path id="DejaVuSans-74" d="M 1172 4494 
L 1172 3500 
L 2356 3500 
L 2356 3053 
L 1172 3053 
L 1172 1153 
Q 1172 725 1289 603 
Q 1406 481 1766 481 
L 2356 481 
L 2356 0 
L 1766 0 
Q 1100 0 847 248 
Q 594 497 594 1153 
L 594 3053 
L 172 3053 
L 172 3500 
L 594 3500 
L 594 4494 
L 1172 4494 
z
" transform="scale(0.015625)"/>
       <path id="DejaVuSans-61" d="M 2194 1759 
Q 1497 1759 1228 1600 
Q 959 1441 959 1056 
Q 959 750 1161 570 
Q 1363 391 1709 391 
Q 2188 391 2477 730 
Q 2766 1069 2766 1631 
L 2766 1759 
L 2194 1759 
z
M 3341 1997 
L 3341 0 
L 2766 0 
L 2766 531 
Q 2569 213 2275 61 
Q 1981 -91 1556 -91 
Q 1019 -91 701 211 
Q 384 513 384 1019 
Q 384 1609 779 1909 
Q 1175 2209 1959 2209 
L 2766 2209 
L 2766 2266 
Q 2766 2663 2505 2880 
Q 2244 3097 1772 3097 
Q 1472 3097 1187 3025 
Q 903 2953 641 2809 
L 641 3341 
Q 956 3463 1253 3523 
Q 1550 3584 1831 3584 
Q 2591 3584 2966 3190 
Q 3341 2797 3341 1997 
z
" transform="scale(0.015625)"/>
       <path id="DejaVuSans-67" d="M 2906 1791 
Q 2906 2416 2648 2759 
Q 2391 3103 1925 3103 
Q 1463 3103 1205 2759 
Q 947 2416 947 1791 
Q 947 1169 1205 825 
Q 1463 481 1925 481 
Q 2391 481 2648 825 
Q 2906 1169 2906 1791 
z
M 3481 434 
Q 3481 -459 3084 -895 
Q 2688 -1331 1869 -1331 
Q 1566 -1331 1297 -1286 
Q 1028 -1241 775 -1147 
L 775 -588 
Q 1028 -725 1275 -790 
Q 1522 -856 1778 -856 
Q 2344 -856 2625 -561 
Q 2906 -266 2906 331 
L 2906 616 
Q 2728 306 2450 153 
Q 2172 0 1784 0 
Q 1141 0 747 490 
Q 353 981 353 1791 
Q 353 2603 747 3093 
Q 1141 3584 1784 3584 
Q 2172 3584 2450 3431 
Q 2728 3278 2906 2969 
L 2906 3500 
L 3481 3500 
L 3481 434 
z
" transform="scale(0.015625)"/>
      </defs>
      <use xlink:href="#DejaVuSans-50"/>
      <use xlink:href="#DejaVuSans-65" x="56.677734"/>
      <use xlink:href="#DejaVuSans-72" x="118.201172"/>
      <use xlink:href="#DejaVuSans-63" x="157.064453"/>
      <use xlink:href="#DejaVuSans-65" x="212.044922"/>
      <use xlink:href="#DejaVuSans-6e" x="273.568359"/>
      <use xlink:href="#DejaVuSans-74" x="336.947266"/>
      <use xlink:href="#DejaVuSans-61" x="376.15625"/>
      <use xlink:href="#DejaVuSans-67" x="437.435547"/>
      <use xlink:href="#DejaVuSans-65" x="500.912109"/>
     </g>
    </g>
   </g>
   <g id="matplotlib.axis_2">
    <g id="ytick_1">
     <g id="line2d_9"/>
     <g id="line2d_10"/>
     <g id="text_6">
      <!-- Other -->
      <g transform="translate(311.51875 61.145156) scale(0.14 -0.14)">
       <defs>
        <path id="DejaVuSans-4f" d="M 2522 4238 
Q 1834 4238 1429 3725 
Q 1025 3213 1025 2328 
Q 1025 1447 1429 934 
Q 1834 422 2522 422 
Q 3209 422 3611 934 
Q 4013 1447 4013 2328 
Q 4013 3213 3611 3725 
Q 3209 4238 2522 4238 
z
M 2522 4750 
Q 3503 4750 4090 4092 
Q 4678 3434 4678 2328 
Q 4678 1225 4090 567 
Q 3503 -91 2522 -91 
Q 1538 -91 948 565 
Q 359 1222 359 2328 
Q 359 3434 948 4092 
Q 1538 4750 2522 4750 
z
" transform="scale(0.015625)"/>
        <path id="DejaVuSans-68" d="M 3513 2113 
L 3513 0 
L 2938 0 
L 2938 2094 
Q 2938 2591 2744 2837 
Q 2550 3084 2163 3084 
Q 1697 3084 1428 2787 
Q 1159 2491 1159 1978 
L 1159 0 
L 581 0 
L 581 4863 
L 1159 4863 
L 1159 2956 
Q 1366 3272 1645 3428 
Q 1925 3584 2291 3584 
Q 2894 3584 3203 3211 
Q 3513 2838 3513 2113 
z
" transform="scale(0.015625)"/>
       </defs>
       <use xlink:href="#DejaVuSans-4f"/>
       <use xlink:href="#DejaVuSans-74" x="78.710938"/>
       <use xlink:href="#DejaVuSans-68" x="117.919922"/>
       <use xlink:href="#DejaVuSans-65" x="181.298828"/>
       <use xlink:href="#DejaVuSans-72" x="242.822266"/>
      </g>
     </g>
    </g>
    <g id="ytick_2">
     <g id="line2d_11"/>
     <g id="line2d_12"/>
     <g id="text_7">
      <!-- Interactive Platforms -->
      <g transform="translate(205.070625 104.637656) scale(0.14 -0.14)">
       <defs>
        <path id="DejaVuSans-49" d="M 628 4666 
L 1259 4666 
L 1259 0 
L 628 0 
L 628 4666 
z
" transform="scale(0.015625)"/>
        <path id="DejaVuSans-69" d="M 603 3500 
L 1178 3500 
L 1178 0 
L 603 0 
L 603 3500 
z
M 603 4863 
L 1178 4863 
L 1178 4134 
L 603 4134 
L 603 4863 
z
" transform="scale(0.015625)"/>
        <path id="DejaVuSans-76" d="M 191 3500 
L 800 3500 
L 1894 563 
L 2988 3500 
L 3597 3500 
L 2284 0 
L 1503 0 
L 191 3500 
z
" transform="scale(0.015625)"/>
        <path id="DejaVuSans-20" transform="scale(0.015625)"/>
        <path id="DejaVuSans-6c" d="M 603 4863 
L 1178 4863 
L 1178 0 
L 603 0 
L 603 4863 
z
" transform="scale(0.015625)"/>
        <path id="DejaVuSans-66" d="M 2375 4863 
L 2375 4384 
L 1825 4384 
Q 1516 4384 1395 4259 
Q 1275 4134 1275 3809 
L 1275 3500 
L 2222 3500 
L 2222 3053 
L 1275 3053 
L 1275 0 
L 697 0 
L 697 3053 
L 147 3053 
L 147 3500 
L 697 3500 
L 697 3744 
Q 697 4328 969 4595 
Q 1241 4863 1831 4863 
L 2375 4863 
z
" transform="scale(0.015625)"/>
        <path id="DejaVuSans-6f" d="M 1959 3097 
Q 1497 3097 1228 2736 
Q 959 2375 959 1747 
Q 959 1119 1226 758 
Q 1494 397 1959 397 
Q 2419 397 2687 759 
Q 2956 1122 2956 1747 
Q 2956 2369 2687 2733 
Q 2419 3097 1959 3097 
z
M 1959 3584 
Q 2709 3584 3137 3096 
Q 3566 2609 3566 1747 
Q 3566 888 3137 398 
Q 2709 -91 1959 -91 
Q 1206 -91 779 398 
Q 353 888 353 1747 
Q 353 2609 779 3096 
Q 1206 3584 1959 3584 
z
" transform="scale(0.015625)"/>
        <path id="DejaVuSans-6d" d="M 3328 2828 
Q 3544 3216 3844 3400 
Q 4144 3584 4550 3584 
Q 5097 3584 5394 3201 
Q 5691 2819 5691 2113 
L 5691 0 
L 5113 0 
L 5113 2094 
Q 5113 2597 4934 2840 
Q 4756 3084 4391 3084 
Q 3944 3084 3684 2787 
Q 3425 2491 3425 1978 
L 3425 0 
L 2847 0 
L 2847 2094 
Q 2847 2600 2669 2842 
Q 2491 3084 2119 3084 
Q 1678 3084 1418 2786 
Q 1159 2488 1159 1978 
L 1159 0 
L 581 0 
L 581 3500 
L 1159 3500 
L 1159 2956 
Q 1356 3278 1631 3431 
Q 1906 3584 2284 3584 
Q 2666 3584 2933 3390 
Q 3200 3197 3328 2828 
z
" transform="scale(0.015625)"/>
        <path id="DejaVuSans-73" d="M 2834 3397 
L 2834 2853 
Q 2591 2978 2328 3040 
Q 2066 3103 1784 3103 
Q 1356 3103 1142 2972 
Q 928 2841 928 2578 
Q 928 2378 1081 2264 
Q 1234 2150 1697 2047 
L 1894 2003 
Q 2506 1872 2764 1633 
Q 3022 1394 3022 966 
Q 3022 478 2636 193 
Q 2250 -91 1575 -91 
Q 1294 -91 989 -36 
Q 684 19 347 128 
L 347 722 
Q 666 556 975 473 
Q 1284 391 1588 391 
Q 1994 391 2212 530 
Q 2431 669 2431 922 
Q 2431 1156 2273 1281 
Q 2116 1406 1581 1522 
L 1381 1569 
Q 847 1681 609 1914 
Q 372 2147 372 2553 
Q 372 3047 722 3315 
Q 1072 3584 1716 3584 
Q 2034 3584 2315 3537 
Q 2597 3491 2834 3397 
z
" transform="scale(0.015625)"/>
       </defs>
       <use xlink:href="#DejaVuSans-49"/>
       <use xlink:href="#DejaVuSans-6e" x="29.492188"/>
       <use xlink:href="#DejaVuSans-74" x="92.871094"/>
       <use xlink:href="#DejaVuSans-65" x="132.080078"/>
       <use xlink:href="#DejaVuSans-72" x="193.603516"/>
       <use xlink:href="#DejaVuSans-61" x="234.716797"/>
       <use xlink:href="#DejaVuSans-63" x="295.996094"/>
       <use xlink:href="#DejaVuSans-74" x="350.976562"/>
       <use xlink:href="#DejaVuSans-69" x="390.185547"/>
       <use xlink:href="#DejaVuSans-76" x="417.96875"/>
       <use xlink:href="#DejaVuSans-65" x="477.148438"/>
       <use xlink:href="#DejaVuSans-20" x="538.671875"/>
       <use xlink:href="#DejaVuSans-50" x="570.458984"/>
       <use xlink:href="#DejaVuSans-6c" x="630.761719"/>
       <use xlink:href="#DejaVuSans-61" x="658.544922"/>
       <use xlink:href="#DejaVuSans-74" x="719.824219"/>
       <use xlink:href="#DejaVuSans-66" x="759.033203"/>
       <use xlink:href="#DejaVuSans-6f" x="794.238281"/>
       <use xlink:href="#DejaVuSans-72" x="855.419922"/>
       <use xlink:href="#DejaVuSans-6d" x="894.783203"/>
       <use xlink:href="#DejaVuSans-73" x="992.195312"/>
      </g>
     </g>
    </g>
    <g id="ytick_3">
     <g id="line2d_13"/>
     <g id="line2d_14"/>
     <g id="text_8">
      <!-- Non-standardized written Reports -->
      <g transform="translate(115.30875 148.130156) scale(0.14 -0.14)">
       <defs>
        <path id="DejaVuSans-4e" d="M 628 4666 
L 1478 4666 
L 3547 763 
L 3547 4666 
L 4159 4666 
L 4159 0 
L 3309 0 
L 1241 3903 
L 1241 0 
L 628 0 
L 628 4666 
z
" transform="scale(0.015625)"/>
        <path id="DejaVuSans-2d" d="M 313 2009 
L 1997 2009 
L 1997 1497 
L 313 1497 
L 313 2009 
z
" transform="scale(0.015625)"/>
        <path id="DejaVuSans-64" d="M 2906 2969 
L 2906 4863 
L 3481 4863 
L 3481 0 
L 2906 0 
L 2906 525 
Q 2725 213 2448 61 
Q 2172 -91 1784 -91 
Q 1150 -91 751 415 
Q 353 922 353 1747 
Q 353 2572 751 3078 
Q 1150 3584 1784 3584 
Q 2172 3584 2448 3432 
Q 2725 3281 2906 2969 
z
M 947 1747 
Q 947 1113 1208 752 
Q 1469 391 1925 391 
Q 2381 391 2643 752 
Q 2906 1113 2906 1747 
Q 2906 2381 2643 2742 
Q 2381 3103 1925 3103 
Q 1469 3103 1208 2742 
Q 947 2381 947 1747 
z
" transform="scale(0.015625)"/>
        <path id="DejaVuSans-7a" d="M 353 3500 
L 3084 3500 
L 3084 2975 
L 922 459 
L 3084 459 
L 3084 0 
L 275 0 
L 275 525 
L 2438 3041 
L 353 3041 
L 353 3500 
z
" transform="scale(0.015625)"/>
        <path id="DejaVuSans-77" d="M 269 3500 
L 844 3500 
L 1563 769 
L 2278 3500 
L 2956 3500 
L 3675 769 
L 4391 3500 
L 4966 3500 
L 4050 0 
L 3372 0 
L 2619 2869 
L 1863 0 
L 1184 0 
L 269 3500 
z
" transform="scale(0.015625)"/>
        <path id="DejaVuSans-52" d="M 2841 2188 
Q 3044 2119 3236 1894 
Q 3428 1669 3622 1275 
L 4263 0 
L 3584 0 
L 2988 1197 
Q 2756 1666 2539 1819 
Q 2322 1972 1947 1972 
L 1259 1972 
L 1259 0 
L 628 0 
L 628 4666 
L 2053 4666 
Q 2853 4666 3247 4331 
Q 3641 3997 3641 3322 
Q 3641 2881 3436 2590 
Q 3231 2300 2841 2188 
z
M 1259 4147 
L 1259 2491 
L 2053 2491 
Q 2509 2491 2742 2702 
Q 2975 2913 2975 3322 
Q 2975 3731 2742 3939 
Q 2509 4147 2053 4147 
L 1259 4147 
z
" transform="scale(0.015625)"/>
        <path id="DejaVuSans-70" d="M 1159 525 
L 1159 -1331 
L 581 -1331 
L 581 3500 
L 1159 3500 
L 1159 2969 
Q 1341 3281 1617 3432 
Q 1894 3584 2278 3584 
Q 2916 3584 3314 3078 
Q 3713 2572 3713 1747 
Q 3713 922 3314 415 
Q 2916 -91 2278 -91 
Q 1894 -91 1617 61 
Q 1341 213 1159 525 
z
M 3116 1747 
Q 3116 2381 2855 2742 
Q 2594 3103 2138 3103 
Q 1681 3103 1420 2742 
Q 1159 2381 1159 1747 
Q 1159 1113 1420 752 
Q 1681 391 2138 391 
Q 2594 391 2855 752 
Q 3116 1113 3116 1747 
z
" transform="scale(0.015625)"/>
       </defs>
       <use xlink:href="#DejaVuSans-4e"/>
       <use xlink:href="#DejaVuSans-6f" x="74.804688"/>
       <use xlink:href="#DejaVuSans-6e" x="135.986328"/>
       <use xlink:href="#DejaVuSans-2d" x="199.365234"/>
       <use xlink:href="#DejaVuSans-73" x="235.449219"/>
       <use xlink:href="#DejaVuSans-74" x="287.548828"/>
       <use xlink:href="#DejaVuSans-61" x="326.757812"/>
       <use xlink:href="#DejaVuSans-6e" x="388.037109"/>
       <use xlink:href="#DejaVuSans-64" x="451.416016"/>
       <use xlink:href="#DejaVuSans-61" x="514.892578"/>
       <use xlink:href="#DejaVuSans-72" x="576.171875"/>
       <use xlink:href="#DejaVuSans-64" x="615.535156"/>
       <use xlink:href="#DejaVuSans-69" x="679.011719"/>
       <use xlink:href="#DejaVuSans-7a" x="706.794922"/>
       <use xlink:href="#DejaVuSans-65" x="759.285156"/>
       <use xlink:href="#DejaVuSans-64" x="820.808594"/>
       <use xlink:href="#DejaVuSans-20" x="884.285156"/>
       <use xlink:href="#DejaVuSans-77" x="916.072266"/>
       <use xlink:href="#DejaVuSans-72" x="997.859375"/>
       <use xlink:href="#DejaVuSans-69" x="1038.972656"/>
       <use xlink:href="#DejaVuSans-74" x="1066.755859"/>
       <use xlink:href="#DejaVuSans-74" x="1105.964844"/>
       <use xlink:href="#DejaVuSans-65" x="1145.173828"/>
       <use xlink:href="#DejaVuSans-6e" x="1206.697266"/>
       <use xlink:href="#DejaVuSans-20" x="1270.076172"/>
       <use xlink:href="#DejaVuSans-52" x="1301.863281"/>
       <use xlink:href="#DejaVuSans-65" x="1366.845703"/>
       <use xlink:href="#DejaVuSans-70" x="1428.369141"/>
       <use xlink:href="#DejaVuSans-6f" x="1491.845703"/>
       <use xlink:href="#DejaVuSans-72" x="1553.027344"/>
       <use xlink:href="#DejaVuSans-74" x="1594.140625"/>
       <use xlink:href="#DejaVuSans-73" x="1633.349609"/>
      </g>
     </g>
    </g>
    <g id="ytick_4">
     <g id="line2d_15"/>
     <g id="line2d_16"/>
     <g id="text_9">
      <!-- Written Reports following established standards -->
      <g transform="translate(15.808125 191.622656) scale(0.14 -0.14)">
       <defs>
        <path id="DejaVuSans-57" d="M 213 4666 
L 850 4666 
L 1831 722 
L 2809 4666 
L 3519 4666 
L 4500 722 
L 5478 4666 
L 6119 4666 
L 4947 0 
L 4153 0 
L 3169 4050 
L 2175 0 
L 1381 0 
L 213 4666 
z
" transform="scale(0.015625)"/>
        <path id="DejaVuSans-62" d="M 3116 1747 
Q 3116 2381 2855 2742 
Q 2594 3103 2138 3103 
Q 1681 3103 1420 2742 
Q 1159 2381 1159 1747 
Q 1159 1113 1420 752 
Q 1681 391 2138 391 
Q 2594 391 2855 752 
Q 3116 1113 3116 1747 
z
M 1159 2969 
Q 1341 3281 1617 3432 
Q 1894 3584 2278 3584 
Q 2916 3584 3314 3078 
Q 3713 2572 3713 1747 
Q 3713 922 3314 415 
Q 2916 -91 2278 -91 
Q 1894 -91 1617 61 
Q 1341 213 1159 525 
L 1159 0 
L 581 0 
L 581 4863 
L 1159 4863 
L 1159 2969 
z
" transform="scale(0.015625)"/>
       </defs>
       <use xlink:href="#DejaVuSans-57"/>
       <use xlink:href="#DejaVuSans-72" x="94.376953"/>
       <use xlink:href="#DejaVuSans-69" x="135.490234"/>
       <use xlink:href="#DejaVuSans-74" x="163.273438"/>
       <use xlink:href="#DejaVuSans-74" x="202.482422"/>
       <use xlink:href="#DejaVuSans-65" x="241.691406"/>
       <use xlink:href="#DejaVuSans-6e" x="303.214844"/>
       <use xlink:href="#DejaVuSans-20" x="366.59375"/>
       <use xlink:href="#DejaVuSans-52" x="398.380859"/>
       <use xlink:href="#DejaVuSans-65" x="463.363281"/>
       <use xlink:href="#DejaVuSans-70" x="524.886719"/>
       <use xlink:href="#DejaVuSans-6f" x="588.363281"/>
       <use xlink:href="#DejaVuSans-72" x="649.544922"/>
       <use xlink:href="#DejaVuSans-74" x="690.658203"/>
       <use xlink:href="#DejaVuSans-73" x="729.867188"/>
       <use xlink:href="#DejaVuSans-20" x="781.966797"/>
       <use xlink:href="#DejaVuSans-66" x="813.753906"/>
       <use xlink:href="#DejaVuSans-6f" x="848.958984"/>
       <use xlink:href="#DejaVuSans-6c" x="910.140625"/>
       <use xlink:href="#DejaVuSans-6c" x="937.923828"/>
       <use xlink:href="#DejaVuSans-6f" x="965.707031"/>
       <use xlink:href="#DejaVuSans-77" x="1026.888672"/>
       <use xlink:href="#DejaVuSans-69" x="1108.675781"/>
       <use xlink:href="#DejaVuSans-6e" x="1136.458984"/>
       <use xlink:href="#DejaVuSans-67" x="1199.837891"/>
       <use xlink:href="#DejaVuSans-20" x="1263.314453"/>
       <use xlink:href="#DejaVuSans-65" x="1295.101562"/>
       <use xlink:href="#DejaVuSans-73" x="1356.625"/>
       <use xlink:href="#DejaVuSans-74" x="1408.724609"/>
       <use xlink:href="#DejaVuSans-61" x="1447.933594"/>
       <use xlink:href="#DejaVuSans-62" x="1509.212891"/>
       <use xlink:href="#DejaVuSans-6c" x="1572.689453"/>
       <use xlink:href="#DejaVuSans-69" x="1600.472656"/>
       <use xlink:href="#DejaVuSans-73" x="1628.255859"/>
       <use xlink:href="#DejaVuSans-68" x="1680.355469"/>
       <use xlink:href="#DejaVuSans-65" x="1743.734375"/>
       <use xlink:href="#DejaVuSans-64" x="1805.257812"/>
       <use xlink:href="#DejaVuSans-20" x="1868.734375"/>
       <use xlink:href="#DejaVuSans-73" x="1900.521484"/>
       <use xlink:href="#DejaVuSans-74" x="1952.621094"/>
       <use xlink:href="#DejaVuSans-61" x="1991.830078"/>
       <use xlink:href="#DejaVuSans-6e" x="2053.109375"/>
       <use xlink:href="#DejaVuSans-64" x="2116.488281"/>
       <use xlink:href="#DejaVuSans-61" x="2179.964844"/>
       <use xlink:href="#DejaVuSans-72" x="2241.244141"/>
       <use xlink:href="#DejaVuSans-64" x="2280.607422"/>
       <use xlink:href="#DejaVuSans-73" x="2344.083984"/>
      </g>
     </g>
    </g>
    <g id="ytick_5">
     <g id="line2d_17"/>
     <g id="line2d_18"/>
     <g id="text_10">
      <!-- Visual Aids -->
      <g transform="translate(275.387812 235.115156) scale(0.14 -0.14)">
       <defs>
        <path id="DejaVuSans-56" d="M 1831 0 
L 50 4666 
L 709 4666 
L 2188 738 
L 3669 4666 
L 4325 4666 
L 2547 0 
L 1831 0 
z
" transform="scale(0.015625)"/>
        <path id="DejaVuSans-75" d="M 544 1381 
L 544 3500 
L 1119 3500 
L 1119 1403 
Q 1119 906 1312 657 
Q 1506 409 1894 409 
Q 2359 409 2629 706 
Q 2900 1003 2900 1516 
L 2900 3500 
L 3475 3500 
L 3475 0 
L 2900 0 
L 2900 538 
Q 2691 219 2414 64 
Q 2138 -91 1772 -91 
Q 1169 -91 856 284 
Q 544 659 544 1381 
z
M 1991 3584 
L 1991 3584 
z
" transform="scale(0.015625)"/>
        <path id="DejaVuSans-41" d="M 2188 4044 
L 1331 1722 
L 3047 1722 
L 2188 4044 
z
M 1831 4666 
L 2547 4666 
L 4325 0 
L 3669 0 
L 3244 1197 
L 1141 1197 
L 716 0 
L 50 0 
L 1831 4666 
z
" transform="scale(0.015625)"/>
       </defs>
       <use xlink:href="#DejaVuSans-56"/>
       <use xlink:href="#DejaVuSans-69" x="66.158203"/>
       <use xlink:href="#DejaVuSans-73" x="93.941406"/>
       <use xlink:href="#DejaVuSans-75" x="146.041016"/>
       <use xlink:href="#DejaVuSans-61" x="209.419922"/>
       <use xlink:href="#DejaVuSans-6c" x="270.699219"/>
       <use xlink:href="#DejaVuSans-20" x="298.482422"/>
       <use xlink:href="#DejaVuSans-41" x="330.269531"/>
       <use xlink:href="#DejaVuSans-69" x="398.677734"/>
       <use xlink:href="#DejaVuSans-64" x="426.460938"/>
       <use xlink:href="#DejaVuSans-73" x="489.9375"/>
      </g>
     </g>
    </g>
    <g id="ytick_6">
     <g id="line2d_19"/>
     <g id="line2d_20"/>
     <g id="text_11">
      <!-- Digital Communications -->
      <g transform="translate(183.779687 278.607656) scale(0.14 -0.14)">
       <defs>
        <path id="DejaVuSans-44" d="M 1259 4147 
L 1259 519 
L 2022 519 
Q 2988 519 3436 956 
Q 3884 1394 3884 2338 
Q 3884 3275 3436 3711 
Q 2988 4147 2022 4147 
L 1259 4147 
z
M 628 4666 
L 1925 4666 
Q 3281 4666 3915 4102 
Q 4550 3538 4550 2338 
Q 4550 1131 3912 565 
Q 3275 0 1925 0 
L 628 0 
L 628 4666 
z
" transform="scale(0.015625)"/>
        <path id="DejaVuSans-43" d="M 4122 4306 
L 4122 3641 
Q 3803 3938 3442 4084 
Q 3081 4231 2675 4231 
Q 1875 4231 1450 3742 
Q 1025 3253 1025 2328 
Q 1025 1406 1450 917 
Q 1875 428 2675 428 
Q 3081 428 3442 575 
Q 3803 722 4122 1019 
L 4122 359 
Q 3791 134 3420 21 
Q 3050 -91 2638 -91 
Q 1578 -91 968 557 
Q 359 1206 359 2328 
Q 359 3453 968 4101 
Q 1578 4750 2638 4750 
Q 3056 4750 3426 4639 
Q 3797 4528 4122 4306 
z
" transform="scale(0.015625)"/>
       </defs>
       <use xlink:href="#DejaVuSans-44"/>
       <use xlink:href="#DejaVuSans-69" x="77.001953"/>
       <use xlink:href="#DejaVuSans-67" x="104.785156"/>
       <use xlink:href="#DejaVuSans-69" x="168.261719"/>
       <use xlink:href="#DejaVuSans-74" x="196.044922"/>
       <use xlink:href="#DejaVuSans-61" x="235.253906"/>
       <use xlink:href="#DejaVuSans-6c" x="296.533203"/>
       <use xlink:href="#DejaVuSans-20" x="324.316406"/>
       <use xlink:href="#DejaVuSans-43" x="356.103516"/>
       <use xlink:href="#DejaVuSans-6f" x="425.927734"/>
       <use xlink:href="#DejaVuSans-6d" x="487.109375"/>
       <use xlink:href="#DejaVuSans-6d" x="584.521484"/>
       <use xlink:href="#DejaVuSans-75" x="681.933594"/>
       <use xlink:href="#DejaVuSans-6e" x="745.3125"/>
       <use xlink:href="#DejaVuSans-69" x="808.691406"/>
       <use xlink:href="#DejaVuSans-63" x="836.474609"/>
       <use xlink:href="#DejaVuSans-61" x="891.455078"/>
       <use xlink:href="#DejaVuSans-74" x="952.734375"/>
       <use xlink:href="#DejaVuSans-69" x="991.943359"/>
       <use xlink:href="#DejaVuSans-6f" x="1019.726562"/>
       <use xlink:href="#DejaVuSans-6e" x="1080.908203"/>
       <use xlink:href="#DejaVuSans-73" x="1144.287109"/>
      </g>
     </g>
    </g>
    <g id="ytick_7">
     <g id="line2d_21"/>
     <g id="line2d_22"/>
     <g id="text_12">
      <!-- Not Systematically / ad hoc -->
      <g transform="translate(159.117812 322.100156) scale(0.14 -0.14)">
       <defs>
        <path id="DejaVuSans-53" d="M 3425 4513 
L 3425 3897 
Q 3066 4069 2747 4153 
Q 2428 4238 2131 4238 
Q 1616 4238 1336 4038 
Q 1056 3838 1056 3469 
Q 1056 3159 1242 3001 
Q 1428 2844 1947 2747 
L 2328 2669 
Q 3034 2534 3370 2195 
Q 3706 1856 3706 1288 
Q 3706 609 3251 259 
Q 2797 -91 1919 -91 
Q 1588 -91 1214 -16 
Q 841 59 441 206 
L 441 856 
Q 825 641 1194 531 
Q 1563 422 1919 422 
Q 2459 422 2753 634 
Q 3047 847 3047 1241 
Q 3047 1584 2836 1778 
Q 2625 1972 2144 2069 
L 1759 2144 
Q 1053 2284 737 2584 
Q 422 2884 422 3419 
Q 422 4038 858 4394 
Q 1294 4750 2059 4750 
Q 2388 4750 2728 4690 
Q 3069 4631 3425 4513 
z
" transform="scale(0.015625)"/>
        <path id="DejaVuSans-79" d="M 2059 -325 
Q 1816 -950 1584 -1140 
Q 1353 -1331 966 -1331 
L 506 -1331 
L 506 -850 
L 844 -850 
Q 1081 -850 1212 -737 
Q 1344 -625 1503 -206 
L 1606 56 
L 191 3500 
L 800 3500 
L 1894 763 
L 2988 3500 
L 3597 3500 
L 2059 -325 
z
" transform="scale(0.015625)"/>
        <path id="DejaVuSans-2f" d="M 1625 4666 
L 2156 4666 
L 531 -594 
L 0 -594 
L 1625 4666 
z
" transform="scale(0.015625)"/>
       </defs>
       <use xlink:href="#DejaVuSans-4e"/>
       <use xlink:href="#DejaVuSans-6f" x="74.804688"/>
       <use xlink:href="#DejaVuSans-74" x="135.986328"/>
       <use xlink:href="#DejaVuSans-20" x="175.195312"/>
       <use xlink:href="#DejaVuSans-53" x="206.982422"/>
       <use xlink:href="#DejaVuSans-79" x="270.458984"/>
       <use xlink:href="#DejaVuSans-73" x="329.638672"/>
       <use xlink:href="#DejaVuSans-74" x="381.738281"/>
       <use xlink:href="#DejaVuSans-65" x="420.947266"/>
       <use xlink:href="#DejaVuSans-6d" x="482.470703"/>
       <use xlink:href="#DejaVuSans-61" x="579.882812"/>
       <use xlink:href="#DejaVuSans-74" x="641.162109"/>
       <use xlink:href="#DejaVuSans-69" x="680.371094"/>
       <use xlink:href="#DejaVuSans-63" x="708.154297"/>
       <use xlink:href="#DejaVuSans-61" x="763.134766"/>
       <use xlink:href="#DejaVuSans-6c" x="824.414062"/>
       <use xlink:href="#DejaVuSans-6c" x="852.197266"/>
       <use xlink:href="#DejaVuSans-79" x="879.980469"/>
       <use xlink:href="#DejaVuSans-20" x="939.160156"/>
       <use xlink:href="#DejaVuSans-2f" x="970.947266"/>
       <use xlink:href="#DejaVuSans-20" x="1004.638672"/>
       <use xlink:href="#DejaVuSans-61" x="1036.425781"/>
       <use xlink:href="#DejaVuSans-64" x="1097.705078"/>
       <use xlink:href="#DejaVuSans-20" x="1161.181641"/>
       <use xlink:href="#DejaVuSans-68" x="1192.96875"/>
       <use xlink:href="#DejaVuSans-6f" x="1256.347656"/>
       <use xlink:href="#DejaVuSans-63" x="1317.529297"/>
      </g>
     </g>
    </g>
    <g id="ytick_8">
     <g id="line2d_23"/>
     <g id="line2d_24"/>
     <g id="text_13">
      <!-- Meetings -->
      <g transform="translate(287.530625 365.592656) scale(0.14 -0.14)">
       <defs>
        <path id="DejaVuSans-4d" d="M 628 4666 
L 1569 4666 
L 2759 1491 
L 3956 4666 
L 4897 4666 
L 4897 0 
L 4281 0 
L 4281 4097 
L 3078 897 
L 2444 897 
L 1241 4097 
L 1241 0 
L 628 0 
L 628 4666 
z
" transform="scale(0.015625)"/>
       </defs>
       <use xlink:href="#DejaVuSans-4d"/>
       <use xlink:href="#DejaVuSans-65" x="86.279297"/>
       <use xlink:href="#DejaVuSans-65" x="147.802734"/>
       <use xlink:href="#DejaVuSans-74" x="209.326172"/>
       <use xlink:href="#DejaVuSans-69" x="248.535156"/>
       <use xlink:href="#DejaVuSans-6e" x="276.318359"/>
       <use xlink:href="#DejaVuSans-67" x="339.697266"/>
       <use xlink:href="#DejaVuSans-73" x="403.173828"/>
      </g>
     </g>
    </g>
   </g>
   <g id="line2d_25">
    <path clip-path="url(#pb5ca4aafc3)" style="fill: none; stroke: #424242; stroke-width: 2.25; stroke-linecap: square"/>
   </g>
   <g id="line2d_26">
    <path clip-path="url(#pb5ca4aafc3)" style="fill: none; stroke: #424242; stroke-width: 2.25; stroke-linecap: square"/>
   </g>
   <g id="line2d_27">
    <path clip-path="url(#pb5ca4aafc3)" style="fill: none; stroke: #424242; stroke-width: 2.25; stroke-linecap: square"/>
   </g>
   <g id="line2d_28">
    <path clip-path="url(#pb5ca4aafc3)" style="fill: none; stroke: #424242; stroke-width: 2.25; stroke-linecap: square"/>
   </g>
   <g id="line2d_29">
    <path clip-path="url(#pb5ca4aafc3)" style="fill: none; stroke: #424242; stroke-width: 2.25; stroke-linecap: square"/>
   </g>
   <g id="line2d_30">
    <path clip-path="url(#pb5ca4aafc3)" style="fill: none; stroke: #424242; stroke-width: 2.25; stroke-linecap: square"/>
   </g>
   <g id="line2d_31">
    <path clip-path="url(#pb5ca4aafc3)" style="fill: none; stroke: #424242; stroke-width: 2.25; stroke-linecap: square"/>
   </g>
   <g id="line2d_32">
    <path clip-path="url(#pb5ca4aafc3)" style="fill: none; stroke: #424242; stroke-width: 2.25; stroke-linecap: square"/>
   </g>
   <g id="patch_3">
    <path d="M 354.77 38.42925 
L 365.18994 38.42925 
L 365.18994 73.22325 
L 354.77 73.22325 
z
" clip-path="url(#pb5ca4aafc3)" style="fill: #176d9e"/>
   </g>
   <g id="patch_4">
    <path d="M 354.77 81.92175 
L 417.289643 81.92175 
L 417.289643 116.71575 
L 354.77 116.71575 
z
" clip-path="url(#pb5ca4aafc3)" style="fill: #1ca3c3"/>
   </g>
   <g id="patch_5">
    <path d="M 354.77 125.41425 
L 469.389345 125.41425 
L 469.389345 160.20825 
L 354.77 160.20825 
z
" clip-path="url(#pb5ca4aafc3)" style="fill: #669f93"/>
   </g>
   <g id="patch_6">
    <path d="M 354.77 168.90675 
L 500.649167 168.90675 
L 500.649167 203.70075 
L 354.77 203.70075 
z
" clip-path="url(#pb5ca4aafc3)" style="fill: #3b6d3f"/>
   </g>
   <g id="patch_7">
    <path d="M 354.77 212.39925 
L 511.069107 212.39925 
L 511.069107 247.19325 
L 354.77 247.19325 
z
" clip-path="url(#pb5ca4aafc3)" style="fill: #dad158"/>
   </g>
   <g id="patch_8">
    <path d="M 354.77 255.89175 
L 573.58875 255.89175 
L 573.58875 290.68575 
L 354.77 290.68575 
z
" clip-path="url(#pb5ca4aafc3)" style="fill: #ca941f"/>
   </g>
   <g id="patch_9">
    <path d="M 354.77 299.38425 
L 573.58875 299.38425 
L 573.58875 334.17825 
L 354.77 334.17825 
z
" clip-path="url(#pb5ca4aafc3)" style="fill: #bc642c"/>
   </g>
   <g id="patch_10">
    <path d="M 354.77 342.87675 
L 688.208095 342.87675 
L 688.208095 377.67075 
L 354.77 377.67075 
z
" clip-path="url(#pb5ca4aafc3)" style="fill: #763755"/>
   </g>
   <g id="text_14">
    <!-- How do you currently communicate your assurance strategies ? -->
    <g transform="translate(273.87375 28.08) scale(0.16 -0.16)">
     <defs>
      <path id="DejaVuSans-48" d="M 628 4666 
L 1259 4666 
L 1259 2753 
L 3553 2753 
L 3553 4666 
L 4184 4666 
L 4184 0 
L 3553 0 
L 3553 2222 
L 1259 2222 
L 1259 0 
L 628 0 
L 628 4666 
z
" transform="scale(0.015625)"/>
      <path id="DejaVuSans-3f" d="M 1222 794 
L 1856 794 
L 1856 0 
L 1222 0 
L 1222 794 
z
M 1838 1253 
L 1241 1253 
L 1241 1734 
Q 1241 2050 1328 2253 
Q 1416 2456 1697 2725 
L 1978 3003 
Q 2156 3169 2236 3316 
Q 2316 3463 2316 3616 
Q 2316 3894 2111 4066 
Q 1906 4238 1569 4238 
Q 1322 4238 1042 4128 
Q 763 4019 459 3809 
L 459 4397 
Q 753 4575 1054 4662 
Q 1356 4750 1678 4750 
Q 2253 4750 2601 4447 
Q 2950 4144 2950 3647 
Q 2950 3409 2837 3195 
Q 2725 2981 2444 2713 
L 2169 2444 
Q 2022 2297 1961 2214 
Q 1900 2131 1875 2053 
Q 1856 1988 1847 1894 
Q 1838 1800 1838 1638 
L 1838 1253 
z
" transform="scale(0.015625)"/>
     </defs>
     <use xlink:href="#DejaVuSans-48"/>
     <use xlink:href="#DejaVuSans-6f" x="75.195312"/>
     <use xlink:href="#DejaVuSans-77" x="136.376953"/>
     <use xlink:href="#DejaVuSans-20" x="218.164062"/>
     <use xlink:href="#DejaVuSans-64" x="249.951172"/>
     <use xlink:href="#DejaVuSans-6f" x="313.427734"/>
     <use xlink:href="#DejaVuSans-20" x="374.609375"/>
     <use xlink:href="#DejaVuSans-79" x="406.396484"/>
     <use xlink:href="#DejaVuSans-6f" x="465.576172"/>
     <use xlink:href="#DejaVuSans-75" x="526.757812"/>
     <use xlink:href="#DejaVuSans-20" x="590.136719"/>
     <use xlink:href="#DejaVuSans-63" x="621.923828"/>
     <use xlink:href="#DejaVuSans-75" x="676.904297"/>
     <use xlink:href="#DejaVuSans-72" x="740.283203"/>
     <use xlink:href="#DejaVuSans-72" x="779.646484"/>
     <use xlink:href="#DejaVuSans-65" x="818.509766"/>
     <use xlink:href="#DejaVuSans-6e" x="880.033203"/>
     <use xlink:href="#DejaVuSans-74" x="943.412109"/>
     <use xlink:href="#DejaVuSans-6c" x="982.621094"/>
     <use xlink:href="#DejaVuSans-79" x="1010.404297"/>
     <use xlink:href="#DejaVuSans-20" x="1069.583984"/>
     <use xlink:href="#DejaVuSans-63" x="1101.371094"/>
     <use xlink:href="#DejaVuSans-6f" x="1156.351562"/>
     <use xlink:href="#DejaVuSans-6d" x="1217.533203"/>
     <use xlink:href="#DejaVuSans-6d" x="1314.945312"/>
     <use xlink:href="#DejaVuSans-75" x="1412.357422"/>
     <use xlink:href="#DejaVuSans-6e" x="1475.736328"/>
     <use xlink:href="#DejaVuSans-69" x="1539.115234"/>
     <use xlink:href="#DejaVuSans-63" x="1566.898438"/>
     <use xlink:href="#DejaVuSans-61" x="1621.878906"/>
     <use xlink:href="#DejaVuSans-74" x="1683.158203"/>
     <use xlink:href="#DejaVuSans-65" x="1722.367188"/>
     <use xlink:href="#DejaVuSans-20" x="1783.890625"/>
     <use xlink:href="#DejaVuSans-79" x="1815.677734"/>
     <use xlink:href="#DejaVuSans-6f" x="1874.857422"/>
     <use xlink:href="#DejaVuSans-75" x="1936.039062"/>
     <use xlink:href="#DejaVuSans-72" x="1999.417969"/>
     <use xlink:href="#DejaVuSans-20" x="2040.53125"/>
     <use xlink:href="#DejaVuSans-61" x="2072.318359"/>
     <use xlink:href="#DejaVuSans-73" x="2133.597656"/>
     <use xlink:href="#DejaVuSans-73" x="2185.697266"/>
     <use xlink:href="#DejaVuSans-75" x="2237.796875"/>
     <use xlink:href="#DejaVuSans-72" x="2301.175781"/>
     <use xlink:href="#DejaVuSans-61" x="2342.289062"/>
     <use xlink:href="#DejaVuSans-6e" x="2403.568359"/>
     <use xlink:href="#DejaVuSans-63" x="2466.947266"/>
     <use xlink:href="#DejaVuSans-65" x="2521.927734"/>
     <use xlink:href="#DejaVuSans-20" x="2583.451172"/>
     <use xlink:href="#DejaVuSans-73" x="2615.238281"/>
     <use xlink:href="#DejaVuSans-74" x="2667.337891"/>
     <use xlink:href="#DejaVuSans-72" x="2706.546875"/>
     <use xlink:href="#DejaVuSans-61" x="2747.660156"/>
     <use xlink:href="#DejaVuSans-74" x="2808.939453"/>
     <use xlink:href="#DejaVuSans-65" x="2848.148438"/>
     <use xlink:href="#DejaVuSans-67" x="2909.671875"/>
     <use xlink:href="#DejaVuSans-69" x="2973.148438"/>
     <use xlink:href="#DejaVuSans-65" x="3000.931641"/>
     <use xlink:href="#DejaVuSans-73" x="3062.455078"/>
     <use xlink:href="#DejaVuSans-20" x="3114.554688"/>
     <use xlink:href="#DejaVuSans-3f" x="3146.341797"/>
    </g>
   </g>
  </g>
 </g>
 <defs>
  <clipPath id="pb5ca4aafc3">
   <rect x="354.77" y="34.08" width="350.11" height="347.94"/>
  </clipPath>
 </defs>
</svg>
