<?xml version="1.0" encoding="UTF-8"?>
<svg id="Text" xmlns="http://www.w3.org/2000/svg" viewBox="0 0 761.26 304.01">
  <defs>
    <style>
      .cls-1 {
        font-size: 19.15px;
      }

      .cls-1, .cls-2 {
        fill: #00b4df;
      }

      .cls-1, .cls-3, .cls-4, .cls-5, .cls-6, .cls-7, .cls-8 {
        font-family: Geomanist-Book, Geomanist;
      }

      .cls-9 {
        fill: #9f4a96;
      }

      .cls-10, .cls-11, .cls-12 {
        fill: none;
        stroke-miterlimit: 10;
      }

      .cls-10, .cls-12 {
        stroke: #fff;
        stroke-width: 3px;
      }

      .cls-13 {
        fill: #0073b4;
      }

      .cls-14 {
        letter-spacing: 0em;
      }

      .cls-11 {
        stroke: #00b4df;
      }

      .cls-15 {
        letter-spacing: 0em;
      }

      .cls-12 {
        fill-rule: evenodd;
      }

      .cls-16 {
        letter-spacing: -.02em;
      }

      .cls-17 {
        letter-spacing: -.02em;
      }

      .cls-18 {
        letter-spacing: -.02em;
      }

      .cls-19 {
        letter-spacing: -.02em;
      }

      .cls-20 {
        letter-spacing: -.03em;
      }

      .cls-21 {
        letter-spacing: -.03em;
      }

      .cls-3 {
        font-size: 16.91px;
      }

      .cls-3, .cls-4, .cls-5, .cls-6 {
        fill: #fff;
      }

      .cls-4 {
        font-size: 14.2px;
      }

      .cls-5 {
        font-size: 13.73px;
      }

      .cls-6 {
        font-size: 11.53px;
      }

      .cls-7 {
        font-size: 20.05px;
      }

      .cls-22 {
        letter-spacing: .02em;
      }

      .cls-23 {
        letter-spacing: .03em;
      }

      .cls-8 {
        font-size: 12px;
      }
    </style>
  </defs>
  <g id="Layer_1">
    <path class="cls-2" d="M484.39,207.38c0-42.08,34.12-76.2,76.2-76.2s76.2,34.12,76.2,76.2h66.38c0-78.75-63.84-142.58-142.58-142.58s-142.58,63.84-142.58,142.58c0,24.54,6.2,47.63,17.12,67.8l58.41-31.56c-5.84-10.78-9.15-23.12-9.15-36.23Z"/>
    <path class="cls-9" d="M560.6,207.38l-66.94,36.17c4.33,8,10.06,15.13,16.85,21.08,13.38,11.72,30.91,18.83,50.09,18.83,33.78,0,62.41-22.02,72.34-52.48,2.42-7.43,3.74-15.36,3.74-23.6h-76.07Z"/>
    <line class="cls-10" x1="560.6" y1="207.38" x2="407.85" y2="209.91"/>
    <line class="cls-10" x1="560.6" y1="207.38" x2="444.08" y2="83.41"/>
    <path class="cls-13" d="M636.67,207.38c0-42.01-34.06-76.07-76.07-76.07s-76.07,34.06-76.07,76.07c0,13.09,3.31,25.41,9.14,36.17l66.94-36.17h76.07Z"/>
    <polyline class="cls-12" points="719.05 207.38 560.6 207.38 396.57 296.02"/>
    <rect class="cls-9" x="71.48" y="79.42" width="25.13" height="28.15"/>
    <rect class="cls-13" x="72.24" y="48.51" width="25.13" height="28.15"/>
    <rect class="cls-2" x="71.48" y="110.83" width="25.13" height="28.15"/>
  </g>
  <text class="cls-8" transform="translate(105.16 123.15)"><tspan x="0" y="0">If yes, how difficult is it to establish trust </tspan><tspan x="0" y="14.4">in the </tspan><tspan class="cls-17" x="32.62" y="14.4">r</tspan><tspan x="36.42" y="14.4">esulting sha</tspan><tspan class="cls-17" x="99.17" y="14.4">r</tspan><tspan x="102.97" y="14.4">ed digital </tspan><tspan class="cls-23" x="156.15" y="14.4">t</tspan><tspan class="cls-14" x="160.28" y="14.4">win?</tspan></text>
  <text class="cls-7" transform="translate(70.98 28.53)"><tspan x="0" y="0">Have you conside</tspan><tspan class="cls-16" x="160.19" y="0">r</tspan><tspan x="166.55" y="0">ed sharing data or models with other organisations? </tspan></text>
  <text class="cls-5" transform="translate(551.65 262.63)"><tspan x="0" y="0">45%</tspan></text>
  <text class="cls-3" transform="translate(510.67 205.77)"><tspan x="0" y="0">55%</tspan></text>
  <text class="cls-5" transform="translate(442.59 236.15)"><tspan class="cls-22" x="0" y="0">1</tspan><tspan x="4.75" y="0">1%</tspan></text>
  <text class="cls-5" transform="translate(447.56 177.13)"><tspan x="0" y="0">22%</tspan></text>
  <text class="cls-5" transform="translate(608.03 128.78)"><tspan x="0" y="0">67%</tspan></text>
  <text class="cls-1" transform="translate(632.44 62.58)"><tspan x="0" y="0">Difficult</tspan></text>
  <text class="cls-1" transform="translate(327.81 139.99)"><tspan x="0" y="0">Neutral</tspan></text>
  <text class="cls-4" transform="translate(511.44 169.33)"><tspan class="cls-21" x="0" y="0">Y</tspan><tspan x="7.5" y="0">es, I want to</tspan><tspan x="0" y="17.04">sha</tspan><tspan class="cls-18" x="21.29" y="17.04">r</tspan><tspan class="cls-15" x="25.79" y="17.04">e data</tspan></text>
  <text class="cls-6" transform="translate(552.93 231.91)"><tspan x="0" y="0">No, I dont</tspan><tspan x="0" y="13.84">sha</tspan><tspan class="cls-19" x="17.29" y="13.84">r</tspan><tspan x="20.94" y="13.84">e data </tspan></text>
  <text class="cls-1" transform="translate(335.92 255.95)"><tspan x="0" y="0">Easy</tspan></text>
  <line class="cls-11" x1="396.21" y1="138.67" x2="438.88" y2="138.67"/>
  <line class="cls-11" x1="379.74" y1="249.37" x2="426.55" y2="233.84"/>
  <line class="cls-11" x1="621.78" y1="93.82" x2="651.4" y2="68.79"/>
  <text class="cls-8" transform="translate(105.16 64.34)"><tspan class="cls-20" x="0" y="0">Y</tspan><tspan x="6.34" y="0">es</tspan></text>
  <text class="cls-8" transform="translate(105.16 96.76)"><tspan x="0" y="0">No</tspan></text>
</svg>