<?xml version="1.0" encoding="UTF-8"?>
<svg id="Hex_codes" xmlns="http://www.w3.org/2000/svg" xmlns:xlink="http://www.w3.org/1999/xlink" viewBox="0 0 971.22 408.59">
  <defs>
    <style>
      .cls-1, .cls-2 {
        fill: none;
      }

      .cls-3 {
        fill: #3b6d3f;
      }

      .cls-4 {
        fill: #ccbb40;
      }

      .cls-4, .cls-5, .cls-6, .cls-7, .cls-8, .cls-9 {
        font-family: MyriadPro-Regular, 'Myriad Pro';
      }

      .cls-4, .cls-5, .cls-7, .cls-8, .cls-9 {
        font-size: 20px;
      }

      .cls-5 {
        fill: #d45f14;
      }

      .cls-10 {
        fill: #ece8ab;
      }

      .cls-11 {
        fill: #cd8b61;
      }

      .cls-6 {
        font-size: 12px;
      }

      .cls-12 {
        fill: #6c916f;
      }

      .cls-13 {
        fill: #dad158;
      }

      .cls-14 {
        fill: #8ed1e1;
      }

      .cls-15 {
        fill: #55bad2;
      }

      .cls-16 {
        clip-path: url(#clippath-31);
      }

      .cls-17 {
        clip-path: url(#clippath-32);
      }

      .cls-18 {
        clip-path: url(#clippath-33);
      }

      .cls-19 {
        clip-path: url(#clippath-34);
      }

      .cls-20 {
        clip-path: url(#clippath-35);
      }

      .cls-21 {
        clip-path: url(#clippath-30);
      }

      .cls-22 {
        clip-path: url(#clippath-36);
      }

      .cls-23 {
        clip-path: url(#clippath-27);
      }

      .cls-24 {
        clip-path: url(#clippath-29);
      }

      .cls-25 {
        clip-path: url(#clippath-26);
      }

      .cls-26 {
        clip-path: url(#clippath-28);
      }

      .cls-27 {
        clip-path: url(#clippath-23);
      }

      .cls-28 {
        clip-path: url(#clippath-24);
      }

      .cls-29 {
        clip-path: url(#clippath-25);
      }

      .cls-30 {
        letter-spacing: 0em;
      }

      .cls-31 {
        clip-path: url(#clippath-4);
      }

      .cls-32 {
        clip-path: url(#clippath-2);
      }

      .cls-33 {
        clip-path: url(#clippath-6);
      }

      .cls-34 {
        clip-path: url(#clippath-8);
      }

      .cls-35 {
        letter-spacing: 0em;
      }

      .cls-36 {
        fill: #d1a2bc;
      }

      .cls-37 {
        letter-spacing: 0em;
      }

      .cls-38 {
        letter-spacing: 0em;
      }

      .cls-39 {
        fill: #9db69f;
      }

      .cls-40 {
        fill: #bc642c;
      }

      .cls-41 {
        fill: #ddb295;
      }

      .cls-7 {
        fill: #0073b4;
      }

      .cls-8 {
        fill: #9f4a96;
      }

      .cls-42 {
        fill: #1ca3c3;
      }

      .cls-43 {
        fill: #e4dd81;
      }

      .cls-9 {
        fill: #337538;
      }

      .cls-44 {
        letter-spacing: -.07em;
      }

      .cls-45 {
        letter-spacing: -.07em;
      }

      .cls-46 {
        letter-spacing: -.02em;
      }

      .cls-47 {
        letter-spacing: -.01em;
      }

      .cls-48 {
        letter-spacing: -.01em;
      }

      .cls-49 {
        letter-spacing: -.01em;
      }

      .cls-50 {
        letter-spacing: -.03em;
      }

      .cls-51 {
        letter-spacing: 0em;
      }

      .cls-52 {
        letter-spacing: 0em;
      }

      .cls-53 {
        letter-spacing: 0em;
      }

      .cls-54 {
        letter-spacing: 0em;
      }

      .cls-55 {
        letter-spacing: 0em;
      }

      .cls-56 {
        letter-spacing: 0em;
      }

      .cls-57 {
        letter-spacing: 0em;
      }

      .cls-58 {
        letter-spacing: 0em;
      }

      .cls-59 {
        letter-spacing: -.01em;
      }

      .cls-60 {
        letter-spacing: -.01em;
      }

      .cls-61 {
        letter-spacing: -.01em;
      }

      .cls-62 {
        letter-spacing: 0em;
      }

      .cls-63 {
        letter-spacing: 0em;
      }

      .cls-64 {
        letter-spacing: 0em;
      }

      .cls-65 {
        font-family: Geomanist-Book, Geomanist;
        font-size: 20.05px;
      }

      .cls-66 {
        fill: #c282a6;
      }

      .cls-67 {
        letter-spacing: .02em;
      }

      .cls-68 {
        letter-spacing: .02em;
      }

      .cls-69 {
        letter-spacing: .02em;
      }

      .cls-70 {
        letter-spacing: .02em;
      }

      .cls-2 {
        stroke: #fff;
        stroke-linecap: square;
        stroke-linejoin: round;
      }

      .cls-71 {
        clip-path: url(#clippath);
      }

      .cls-72 {
        letter-spacing: .01em;
      }

      .cls-73 {
        letter-spacing: .01em;
      }

      .cls-74 {
        letter-spacing: .03em;
      }

      .cls-75 {
        fill: #e8e8e8;
      }

      .cls-76 {
        letter-spacing: 0em;
      }

      .cls-77 {
        letter-spacing: 0em;
      }

      .cls-78 {
        letter-spacing: 0em;
      }

      .cls-79 {
        letter-spacing: 0em;
      }

      .cls-80 {
        letter-spacing: .01em;
      }

      .cls-81 {
        letter-spacing: 0em;
      }
    </style>
    <clipPath id="clippath">
      <rect class="cls-1" x="376.2" y="45.11" width="558" height="332.64"/>
    </clipPath>
    <clipPath id="clippath-2">
      <rect class="cls-1" x="376.2" y="45.11" width="558" height="332.64"/>
    </clipPath>
    <clipPath id="clippath-4">
      <rect class="cls-1" x="376.2" y="45.11" width="558" height="332.64"/>
    </clipPath>
    <clipPath id="clippath-6">
      <rect class="cls-1" x="376.2" y="45.11" width="558" height="332.64"/>
    </clipPath>
    <clipPath id="clippath-8">
      <rect class="cls-1" x="376.2" y="45.11" width="558" height="332.64"/>
    </clipPath>
    <clipPath id="clippath-23">
      <rect class="cls-1" x="376.2" y="45.11" width="558" height="332.64"/>
    </clipPath>
    <clipPath id="clippath-24">
      <rect class="cls-1" x="376.2" y="45.11" width="558" height="332.64"/>
    </clipPath>
    <clipPath id="clippath-25">
      <rect class="cls-1" x="376.2" y="45.11" width="558" height="332.64"/>
    </clipPath>
    <clipPath id="clippath-26">
      <rect class="cls-1" x="376.2" y="45.11" width="558" height="332.64"/>
    </clipPath>
    <clipPath id="clippath-27">
      <rect class="cls-1" x="376.2" y="45.11" width="558" height="332.64"/>
    </clipPath>
    <clipPath id="clippath-28">
      <rect class="cls-1" x="376.2" y="45.11" width="558" height="332.64"/>
    </clipPath>
    <clipPath id="clippath-29">
      <rect class="cls-1" x="376.2" y="45.11" width="558" height="332.64"/>
    </clipPath>
    <clipPath id="clippath-30">
      <rect class="cls-1" x="376.2" y="45.11" width="558" height="332.64"/>
    </clipPath>
    <clipPath id="clippath-31">
      <rect class="cls-1" x="376.2" y="45.11" width="558" height="332.64"/>
    </clipPath>
    <clipPath id="clippath-32">
      <rect class="cls-1" x="376.2" y="45.11" width="558" height="332.64"/>
    </clipPath>
    <clipPath id="clippath-33">
      <rect class="cls-1" x="376.2" y="45.11" width="558" height="332.64"/>
    </clipPath>
    <clipPath id="clippath-34">
      <rect class="cls-1" x="376.2" y="45.11" width="558" height="332.64"/>
    </clipPath>
    <clipPath id="clippath-35">
      <rect class="cls-1" x="376.2" y="45.11" width="558" height="332.64"/>
    </clipPath>
    <clipPath id="clippath-36">
      <rect class="cls-1" x="376.2" y="45.11" width="558" height="332.64"/>
    </clipPath>
  </defs>
  <text class="cls-6" transform="translate(273.17 60.3)"><tspan class="cls-49" x="0" y="0">L</tspan><tspan x="5.5" y="0">oss of d</tspan><tspan class="cls-58" x="43.54" y="0">a</tspan><tspan x="49.27" y="0">ta </tspan><tspan class="cls-51" x="61.57" y="0">c</tspan><tspan x="66.88" y="0">o</tspan><tspan class="cls-58" x="73.46" y="0">n</tspan><tspan x="80.08" y="0">t</tspan><tspan class="cls-61" x="84.05" y="0">r</tspan><tspan x="87.85" y="0">ol</tspan></text>
  <g id="patch_2">
    <path class="cls-75" d="M376.2,377.75h558V45.11H376.2v332.64Z"/>
  </g>
  <g id="matplotlib.axis_1">
    <g id="xtick_1">
      <g id="line2d_1">
        <g class="cls-71">
          <path class="cls-2" d="M376.2,377.75V45.11"/>
        </g>
      </g>
    </g>
    <g id="xtick_3">
      <g id="line2d_5">
        <g class="cls-32">
          <path class="cls-2" d="M509.06,377.75V45.11"/>
        </g>
      </g>
    </g>
    <g id="xtick_5">
      <g id="line2d_9">
        <g class="cls-31">
          <path class="cls-2" d="M641.91,377.75V45.11"/>
        </g>
      </g>
    </g>
    <g id="xtick_7">
      <g id="line2d_13">
        <g class="cls-33">
          <path class="cls-2" d="M774.77,377.75V45.11"/>
        </g>
      </g>
    </g>
    <g id="xtick_9">
      <g id="line2d_17">
        <g class="cls-34">
          <path class="cls-2" d="M907.63,377.75V45.11"/>
        </g>
      </g>
    </g>
  </g>
  <g id="patch_3">
    <g class="cls-27">
      <path class="cls-42" d="M376.2,47.49h265.71v19.01h-265.71v-19.01Z"/>
    </g>
  </g>
  <g id="patch_4">
    <g class="cls-28">
      <path class="cls-15" d="M376.2,71.25h478.29v19.01h-478.29v-19.01Z"/>
    </g>
  </g>
  <g id="patch_5">
    <g class="cls-29">
      <path class="cls-14" d="M376.2,95.01h372v19.01h-372v-19.01Z"/>
    </g>
  </g>
  <g id="patch_6">
    <g class="cls-25">
      <path class="cls-3" d="M376.2,118.77h531.43v19.01H376.2v-19.01Z"/>
    </g>
  </g>
  <g id="patch_7">
    <g class="cls-23">
      <path class="cls-12" d="M376.2,142.53h318.86v19.01h-318.86v-19.01Z"/>
    </g>
  </g>
  <g id="patch_8">
    <g class="cls-26">
      <path class="cls-39" d="M376.2,166.29h212.57v19.01h-212.57v-19.01Z"/>
    </g>
  </g>
  <g id="patch_9">
    <g class="cls-24">
      <path class="cls-13" d="M376.2,190.05h372v19.01h-372v-19.01Z"/>
    </g>
  </g>
  <g id="patch_10">
    <g class="cls-21">
      <path class="cls-43" d="M376.2,213.81h265.71v19.01h-265.71v-19.01Z"/>
    </g>
  </g>
  <g id="patch_11">
    <g class="cls-16">
      <path class="cls-10" d="M376.2,237.57h372v19.01h-372v-19.01Z"/>
    </g>
  </g>
  <g id="patch_12">
    <g class="cls-17">
      <path class="cls-40" d="M376.2,261.33h159.43v19.01h-159.43v-19.01Z"/>
    </g>
  </g>
  <g id="patch_13">
    <g class="cls-18">
      <path class="cls-11" d="M376.2,285.09h425.14v19.01h-425.14v-19.01Z"/>
    </g>
  </g>
  <g id="patch_14">
    <g class="cls-19">
      <path class="cls-41" d="M376.2,308.85h425.14v19.01h-425.14v-19.01Z"/>
    </g>
  </g>
  <g id="patch_15">
    <g class="cls-20">
      <path class="cls-66" d="M376.2,332.61h159.43v19.01h-159.43v-19.01Z"/>
    </g>
  </g>
  <g id="patch_16">
    <g class="cls-22">
      <path class="cls-36" d="M376.2,356.37h159.43v19.01h-159.43v-19.01Z"/>
    </g>
  </g>
  <text class="cls-6" transform="translate(272.26 84.18)"><tspan x="0" y="0">D</tspan><tspan class="cls-54" x="7.99" y="0">a</tspan><tspan x="13.73" y="0">ta </tspan><tspan class="cls-53" x="26.03" y="0">c</tspan><tspan x="31.33" y="0">onfide</tspan><tspan class="cls-58" x="63.63" y="0">n</tspan><tspan x="70.25" y="0">tiali</tspan><tspan class="cls-81" x="88.45" y="0">t</tspan><tspan x="92.53" y="0">y</tspan></text>
  <text class="cls-6" transform="translate(269.31 108.07)"><tspan class="cls-80" x="0" y="0">I</tspan><tspan class="cls-30" x="2.99" y="0">n</tspan><tspan class="cls-47" x="9.65" y="0">f</tspan><tspan x="13" y="0">o</tspan><tspan class="cls-78" x="19.58" y="0">r</tspan><tspan x="23.56" y="0">m</tspan><tspan class="cls-58" x="33.56" y="0">a</tspan><tspan x="39.3" y="0">tion secu</tspan><tspan class="cls-78" x="84.62" y="0">r</tspan><tspan class="cls-37" x="88.59" y="0">i</tspan><tspan class="cls-81" x="91.4" y="0">t</tspan><tspan x="95.48" y="0">y</tspan></text>
  <text class="cls-6" transform="translate(236.61 131.95)"><tspan class="cls-80" x="0" y="0">I</tspan><tspan class="cls-54" x="2.99" y="0">n</tspan><tspan class="cls-53" x="9.6" y="0">t</tspan><tspan x="13.5" y="0">elle</tspan><tspan class="cls-72" x="31.19" y="0">c</tspan><tspan class="cls-37" x="36.72" y="0">tual p</tspan><tspan class="cls-61" x="65.29" y="0">r</tspan><tspan x="69.09" y="0">ope</tspan><tspan class="cls-69" x="88.52" y="0">r</tspan><tspan class="cls-81" x="92.73" y="0">t</tspan><tspan x="96.81" y="0">y </tspan><tspan class="cls-78" x="105.01" y="0">r</tspan><tspan x="108.98" y="0">ig</tspan><tspan class="cls-58" x="118.5" y="0">h</tspan><tspan x="125.11" y="0">ts</tspan></text>
  <text class="cls-6" transform="translate(201.77 155.84)"><tspan class="cls-78" x="0" y="0">R</tspan><tspan x="6.5" y="0">egul</tspan><tspan class="cls-54" x="28.67" y="0">a</tspan><tspan class="cls-53" x="34.4" y="0">t</tspan><tspan x="38.3" y="0">o</tspan><tspan class="cls-67" x="44.89" y="0">r</tspan><tspan x="49.12" y="0">y </tspan><tspan class="cls-51" x="57.31" y="0">c</tspan><tspan x="62.62" y="0">on</tspan><tspan class="cls-51" x="75.86" y="0">c</tspan><tspan x="81.17" y="0">e</tspan><tspan class="cls-78" x="87.18" y="0">r</tspan><tspan x="91.15" y="0">ns a</tspan><tspan class="cls-61" x="110.89" y="0">r</tspan><tspan x="114.69" y="0">ound d</tspan><tspan class="cls-58" x="150.63" y="0">a</tspan><tspan x="156.37" y="0">ta </tspan></text>
  <text class="cls-6" transform="translate(245.62 179.72)"><tspan class="cls-49" x="0" y="0">L</tspan><tspan x="5.5" y="0">egal a</tspan><tspan class="cls-51" x="35.16" y="0">g</tspan><tspan class="cls-62" x="41.79" y="0">r</tspan><tspan x="45.6" y="0">eeme</tspan><tspan class="cls-58" x="73.64" y="0">n</tspan><tspan x="80.25" y="0">t ba</tspan><tspan class="cls-78" x="99.38" y="0">rr</tspan><tspan class="cls-37" x="107.33" y="0">iers</tspan></text>
  <text class="cls-6" transform="translate(290.5 203.6)"><tspan class="cls-35" x="0" y="0">R</tspan><tspan x="6.49" y="0">OI Dist</tspan><tspan class="cls-78" x="39.7" y="0">r</tspan><tspan x="43.67" y="0">ibution</tspan></text>
  <text class="cls-6" transform="translate(257.63 227.49)"><tspan x="0" y="0">Lack of trust in pa</tspan><tspan class="cls-69" x="88.03" y="0">r</tspan><tspan x="92.24" y="0">tner</tspan></text>
  <text class="cls-6" transform="translate(307.37 251.37)"><tspan class="cls-59" x="0" y="0">C</tspan><tspan x="6.83" y="0">ompetition</tspan></text>
  <text class="cls-6" transform="translate(261.01 275.26)"><tspan class="cls-44" x="0" y="0">T</tspan><tspan x="5.11" y="0">echnical a</tspan><tspan class="cls-61" x="54.95" y="0">r</tspan><tspan x="58.75" y="0">chi</tspan><tspan class="cls-53" x="73.59" y="0">t</tspan><tspan x="77.5" y="0">e</tspan><tspan class="cls-73" x="83.51" y="0">c</tspan><tspan x="89.04" y="0">tu</tspan><tspan class="cls-61" x="99.62" y="0">r</tspan><tspan x="103.43" y="0">e</tspan></text>
  <text class="cls-6" transform="translate(293.05 299.14)"><tspan class="cls-80" x="0" y="0">I</tspan><tspan class="cls-54" x="2.99" y="0">n</tspan><tspan class="cls-53" x="9.6" y="0">t</tspan><tspan x="13.5" y="0">e</tspan><tspan class="cls-61" x="19.51" y="0">r</tspan><tspan x="23.32" y="0">ope</tspan><tspan class="cls-55" x="42.74" y="0">r</tspan><tspan x="46.61" y="0">abili</tspan><tspan class="cls-79" x="67.67" y="0">t</tspan><tspan class="cls-30" x="71.75" y="0">y</tspan></text>
  <text class="cls-6" transform="translate(225.93 323.02)"><tspan class="cls-80" x="0" y="0">I</tspan><tspan class="cls-30" x="2.99" y="0">nsufficie</tspan><tspan class="cls-58" x="44.99" y="0">n</tspan><tspan x="51.6" y="0">t di</tspan><tspan class="cls-51" x="67.69" y="0">g</tspan><tspan x="74.33" y="0">ital </tspan><tspan class="cls-63" x="92.27" y="0">a</tspan><tspan class="cls-58" x="97.95" y="0">w</tspan><tspan x="106.74" y="0">a</tspan><tspan class="cls-61" x="112.52" y="0">r</tspan><tspan x="116.33" y="0">eness</tspan></text>
  <text class="cls-6" transform="translate(287.85 346.91)"><tspan x="0" y="0">Business change</tspan></text>
  <text class="cls-6" transform="translate(298.61 370.79)"><tspan x="0" y="0">Clie</tspan><tspan class="cls-58" x="18.61" y="0">n</tspan><tspan x="25.22" y="0">t sponsor</tspan></text>
  <text class="cls-7" transform="translate(27.01 81.47)"><tspan x="0" y="0">D</tspan><tspan class="cls-56" x="13.32" y="0">a</tspan><tspan x="22.88" y="0">ta </tspan><tspan class="cls-59" x="43.38" y="0">C</tspan><tspan class="cls-38" x="54.76" y="0">on</tspan><tspan class="cls-52" x="76.84" y="0">c</tspan><tspan class="cls-38" x="85.68" y="0">e</tspan><tspan class="cls-76" x="95.7" y="0">r</tspan><tspan class="cls-38" x="102.32" y="0">ns</tspan></text>
  <text class="cls-9" transform="translate(27.01 138.18)"><tspan class="cls-48" x="0" y="0">L</tspan><tspan x="9.16" y="0">egal &amp; </tspan><tspan class="cls-77" x="0" y="24">R</tspan><tspan x="10.84" y="24">egul</tspan><tspan class="cls-57" x="47.78" y="24">a</tspan><tspan class="cls-52" x="57.34" y="24">t</tspan><tspan class="cls-38" x="63.84" y="24">o</tspan><tspan class="cls-68" x="74.82" y="24">r</tspan><tspan x="81.86" y="24">y Ba</tspan><tspan class="cls-77" x="116" y="24">rr</tspan><tspan x="129.24" y="24">iers</tspan></text>
  <text class="cls-4" transform="translate(27.01 218.89)"><tspan class="cls-50" x="0" y="0">P</tspan><tspan x="10.12" y="0">a</tspan><tspan class="cls-70" x="19.76" y="0">r</tspan><tspan x="26.78" y="0">tnership </tspan><tspan class="cls-59" x="100.38" y="0">C</tspan><tspan x="111.76" y="0">on</tspan><tspan class="cls-52" x="133.84" y="0">c</tspan><tspan class="cls-38" x="142.68" y="0">e</tspan><tspan class="cls-77" x="152.7" y="0">r</tspan><tspan x="159.32" y="0">ns</tspan></text>
  <text class="cls-5" transform="translate(27.03 287.61)"><tspan class="cls-45" x="0" y="0">T</tspan><tspan class="cls-38" x="8.52" y="0">echnical Challenges</tspan></text>
  <text class="cls-8" transform="translate(27.01 356.32)"><tspan x="0" y="0">O</tspan><tspan class="cls-64" x="13.78" y="0">r</tspan><tspan x="20.16" y="0">ganiz</tspan><tspan class="cls-57" x="65.32" y="0">a</tspan><tspan x="74.88" y="0" xml:space="preserve">tion &amp;  </tspan><tspan class="cls-60" x="133.08" y="0">C</tspan><tspan class="cls-38" x="144.44" y="0">ultu</tspan><tspan class="cls-61" x="177.82" y="0">r</tspan><tspan class="cls-38" x="184.16" y="0">e</tspan></text>
  <text class="cls-65" transform="translate(21.87 32.53)"><tspan x="0" y="0">What a</tspan><tspan class="cls-46" x="62.49" y="0">r</tspan><tspan x="68.85" y="0">e the major challenges to overcome when building connected digital </tspan><tspan class="cls-74" x="689.52" y="0">t</tspan><tspan x="696.42" y="0">wins?</tspan></text>
  <text class="cls-6" transform="translate(502.28 390.01)"><tspan x="0" y="0">5 %</tspan></text>
  <text class="cls-6" transform="translate(627.97 390.01)"><tspan x="0" y="0">10 %</tspan></text>
  <text class="cls-6" transform="translate(760.79 390.01)"><tspan x="0" y="0">15 %</tspan></text>
  <text class="cls-6" transform="translate(894.26 390.01)"><tspan x="0" y="0">20 %</tspan></text>
</svg>