<svg class="main-svg" xmlns="http://www.w3.org/2000/svg" xmlns:xlink="http://www.w3.org/1999/xlink" width="1200" height="900" style="" viewBox="0 0 800 600"><rect x="0" y="0" width="800" height="600" style="fill: rgb(255, 255, 255); fill-opacity: 1;"/><defs id="defs-578a79"><g class="clips"/><g class="gradients"/><g class="patterns"/></defs><g class="bglayer"/><g class="layer-below"><g class="imagelayer"/><g class="shapelayer"/></g><g class="cartesianlayer"/><g class="polarlayer"/><g class="smithlayer"/><g class="ternarylayer"/><g class="geolayer"/><g class="funnelarealayer"/><g class="pielayer"><g class="trace" stroke-linejoin="round" style="opacity: 1;"><g class="slice"><path class="surface" d="M437.31153834295964,316.45134400098647a49.285714285714285,49.285714285714285 0 0 0 -41.61330489974217,-75.69432060967912l0,-114.99999999999999a164.28571428571428,164.28571428571428 0 0 1 138.7110163324739,252.31440203226376Z" style="pointer-events: none; fill: rgb(64, 181, 149); fill-opacity: 1; stroke-width: 2; stroke: rgb(0, 0, 0); stroke-opacity: 1;"/><g class="slicetext"><text data-notex="1" class="slicetext" transform="translate(654.9597773075665,214.88464684297676)" text-anchor="middle" x="0" y="0" style="font-family: 'Open Sans', verdana, arial, sans-serif; font-size: 16px; fill: rgb(42, 63, 95); fill-opacity: 1; white-space: pre;">Research and Development</text></g></g><g class="slice"><path class="surface" d="M383.6717639990261,238.06878897477725a49.285714285714285,49.285714285714285 0 0 0 -46.873499731689705,34.05559099152045l-109.37149937394264,-35.53695435311896a164.28571428571428,164.28571428571428 0 0 1 156.24499910563236,-113.51863663840149Z" style="pointer-events: none; fill: rgb(0, 180, 223); fill-opacity: 1; stroke-width: 2; stroke: rgb(0, 0, 0); stroke-opacity: 1;"/><g class="slicetext"><text data-notex="1" class="slicetext" transform="translate(201.7320439795484,154.31311062274372)" text-anchor="middle" x="0" y="0" style="font-family: 'Open Sans', verdana, arial, sans-serif; font-size: 16px; fill: rgb(42, 63, 95); fill-opacity: 1; white-space: pre;">Senior Management</text></g></g><g class="slice"><path class="surface" d="M333.55771213732464,280.3090803613317a49.285714285714285,49.285714285714285 0 0 0 8.898204194882952,46.64601993180783l-88.60902291921576,73.30375882109931a164.28571428571428,164.28571428571428 0 0 1 -29.660680649609844,-155.4867331060261Z" style="pointer-events: none; fill: rgb(128, 217, 239); fill-opacity: 1; stroke-width: 2; stroke: rgb(0, 0, 0); stroke-opacity: 1;"/><g class="slicetext"><text data-notex="1" class="slicetext" transform="translate(117.53982424930123,332.9156163973322)" text-anchor="middle" x="0" y="0" style="font-family: 'Open Sans', verdana, arial, sans-serif; font-size: 16px; fill: rgb(42, 63, 95); fill-opacity: 1; white-space: pre;">Strategic/Business Lead</text></g></g><g class="slice"><path class="surface" d="M347.02723171105157,332.84840456858484a49.285714285714285,49.285714285714285 0 0 0 37.97529553680677,17.86981764810029l3.698682094256264e-14,114.99999999999999a164.28571428571428,164.28571428571428 0 0 1 -126.58431845602257,-59.56605882700097Z" style="pointer-events: none; fill: rgb(204, 120, 167); fill-opacity: 1; stroke-width: 2; stroke: rgb(0, 0, 0); stroke-opacity: 1;"/><g class="slicetext"><text data-notex="1" class="slicetext" transform="translate(193.115572205025,464.3151085004132)" text-anchor="middle" x="0" y="0" style="font-family: 'Open Sans', verdana, arial, sans-serif; font-size: 16px; fill: rgb(42, 63, 95); fill-opacity: 1; white-space: pre;">In-house Technical Specialist</text></g></g><g class="slice"><path class="surface" d="M391.03835388236564,351.0979642409959a49.285714285714285,49.285714285714285 0 0 0 28.96941600584331,-9.412733848663313l67.59530401363443,93.03695435311893a164.28571428571428,164.28571428571428 0 0 1 -96.5647200194777,31.37577949554438Z" style="pointer-events: none; fill: rgb(229, 187, 211); fill-opacity: 1; stroke-width: 2; stroke: rgb(0, 0, 0); stroke-opacity: 1;"/><g class="slicetext"><text data-notex="1" class="slicetext" transform="translate(567.5241815296785,473.12620690849184)" text-anchor="middle" x="0" y="0" style="font-family: 'Open Sans', verdana, arial, sans-serif; font-size: 16px; fill: rgb(42, 63, 95); fill-opacity: 1; white-space: pre;">Consultant/External Specialist</text></g></g><g class="slice"><path class="surface" d="M423.092481518829,339.8609370194411a49.285714285714285,49.285714285714285 0 0 0 9.00587953096343,-8.457083799436987l88.60902291921576,73.3037588210993a164.28571428571428,164.28571428571428 0 0 1 -30.01959843654477,28.190279331456622Z" style="pointer-events: none; fill: rgb(232, 232, 232); fill-opacity: 1; stroke-width: 2; stroke: rgb(0, 0, 0); stroke-opacity: 1;"/><g class="slicetext"><text data-notex="1" class="slicetext" transform="translate(534.1625007726989,431.1781920128988)" text-anchor="middle" x="0" y="0" style="font-family: 'Open Sans', verdana, arial, sans-serif; font-size: 16px; fill: rgb(42, 63, 95); fill-opacity: 1; white-space: pre;">Other</text></g></g><g class="slice"><path class="surface" d="M433.1207922763152,330.24413263858787a49.285714285714285,49.285714285714285 0 0 0 3.6380093629353993,-5.0072903136491265l97.0977114327317,61.62008142258466a164.28571428571428,164.28571428571428 0 0 1 -12.126697876451331,16.690967712163754Z" style="pointer-events: none; fill: rgb(242, 221, 233); fill-opacity: 1; stroke-width: 2; stroke: rgb(0, 0, 0); stroke-opacity: 1;"/><g class="slicetext"><text data-notex="1" class="slicetext" transform="translate(655.8210565296783,405.0114981728738)" text-anchor="middle" x="0" y="0" style="font-family: 'Open Sans', verdana, arial, sans-serif; font-size: 16px; fill: rgb(42, 63, 95); fill-opacity: 1; white-space: pre;">Digital Twin Support Specialist</text></g></g></g></g><g class="iciclelayer"/><g class="treemaplayer"/><g class="sunburstlayer"/><g class="glimages"/><defs id="topdefs-578a79"><g class="clips"/></defs><g class="layer-above"><g class="imagelayer"/><g class="shapelayer"/></g><g class="infolayer"><g class="g-gtitle"><text class="gtitle" x="400" y="32" text-anchor="middle" dy="0em" style="font-family: 'Open Sans', verdana, arial, sans-serif; font-size: 17px; fill: rgb(42, 63, 95); opacity: 1; white-space: pre;">Pie Chart</text></g></g></svg>